<?xml version="1.0" encoding="utf-8"?>
<svg width="364.4058" height="363.4588" class="css-1j8o68f" viewBox="48.404 171.832 212.465 63.217" xmlns="http://www.w3.org/2000/svg">
  <defs>
    <linearGradient id="c">
      <stop offset="0" stop-color="#8f5e25"/>
      <stop offset="0.5" stop-color="#fbf4a1"/>
      <stop offset="1" stop-color="#8f5e25"/>
    </linearGradient>
  </defs>
  <path fill="url(#c)" d="M4.48 31.68c-.16.96-.04 1.8-.04 2.68s-.04 1.72 0 2.6c.04.48.16 1 .28 1.48.08.4.16.84.4 1.2.04.08 0 .16 0 .28-.56.04-1.12 0-1.68.04-.56 0-1.08 0-1.64-.04-.56 0-1.12.08-1.68-.04-.08-.32 0-.52.08-.76.48-1.08.6-2.24.6-3.4V18.48l-.12-4.56c0-.16 0-.28-.04-.44C.4 12.76.4 11.92 0 11.2v-.16c.12-.24.32-.2.52-.2h4.16c1 0 2-.04 3 0 .72.04 1.44.16 2.12.4 1.28.48 2.12 1.4 2.6 2.68.4 1.08.64 2.16.76 3.32.08.84.08 1.64.08 2.48 0 .96-.08 1.88-.2 2.84-.12.76-.24 1.52-.4 2.28-.16 1.16-.72 2.16-1.48 3-.6.76-1.28 1.44-2.2 1.8-.24.08-.52.2-.76.24-.76.2-1.44.48-2.12.8-.32.12-.6.24-.88.36-.32.16-.6.36-.72.64zM3.4 18.12c-.04 0-.04.04-.08.04.04 0 .04-.04.04-.04.04-.04.08-.04.12-.08-.04 0-.08-.04-.12-.04l-.12-.12c-.04.04-.04.08-.04.08.08 0 .12 0 .2.04v.12zm-.36.6c0-.04.04-.08.04-.08l.08.08h.04c0 .04-.04 0-.04-.04h-.12c-.04.04-.04.08-.04.08zm8 .12v-.04H11c0 .04-.04.04-.04.08.04 0 .04-.04.08-.04zm-8 1.76c-.04.04-.08.08-.12.08-.28-.12 0-.4-.2-.56-.04 0-.08 0-.16-.04.12-.08.2-.2.32-.32-.28-.04-.52-.04-.68.28.16.04.24.04.36.08-.04.24 0 .48.24.68l.12-.12h.12v.36c-.08 0-.12.04-.2.04v.04c.08 0 .12.04.2.04 0 .04.04.04.04.08 0-.04.04-.04.08-.08.16-.28.16-.4 0-.56-.04-.04-.04-.08-.08-.08 0 0-.04.04-.04.08zM2.2 34.64c0 .04-.04.08-.04.08s.04-.04.08-.04v-.04H2.2zM2 13.16c-.04 0-.08 0-.12-.04.04.04.08.04.08.08h.08c0 .04-.04.08-.08.08-.04.04-.08.08-.16.12v-.08H2v-.16zm5.6 15.4s-.04-.04-.08-.04c.04 0 .08.04.12.04.04.04.08.08.16.08v-.08h-.2zM11.84 18c.04 0 .12.04.2.04-.04-.16-.04-.16-.2-.04-.04 0-.04.04-.04 0 0 .04 0 0 .04 0zm-7.28-4.72c.04.04.04.04.04.08 0-.04-.04-.04-.04-.04 0-.08.04-.16.04-.24-.12.08-.2.12-.04.2zM11 26.08c.16-.08.12-.16-.08-.24.04.12.08.2.12.28H11v-.04zm-9.04 9.4c.08 0 .12-.04.24-.04l-.2-.2v.24c-.04.04-.04.04-.08.04.04 0 .04-.04.04-.04zM2 16c.12.12.12.12.16-.08-.04.04-.12.08-.2.08-.04-.04-.08-.12-.2-.28 0 .2.04.28.04.36.08-.04.12-.08.2-.08zm9 3.76s-.04-.04-.04-.08c0 .04.04.04.08.08-.04.12-.16.24.04.32l.16-.16c-.08-.08-.16-.12-.24-.16zm-8.92-.6c.28-.12.08-.28-.04-.44.04.16.04.32.08.44-.04.04-.08.04-.04.04-.04.04 0 0 0-.04zm.48-2.2c-.04-.08-.04-.16-.12-.32-.04.12-.08.16-.08.24.08.04.16.04.2.04 0 .08-.04.12-.12.28.16-.08.32.16.44-.12-.12-.04-.2-.08-.32-.12zm6.92 9.48c.12 0 .24 0 .2-.2h-.36c.08.08.12.16.2.2-.08.04-.16.04-.24.04 0 0 .04.04.04.08.04-.04.12-.08.16-.12zm1.88-8.56c-.12-.04-.24-.04-.36-.08v.44c.12-.16.24-.24.36-.36l.04-.04s0 .04-.04.04zm-.68 7.4c.04.04.12.08.16.08l.04-.04c-.08-.04-.16-.04-.2-.04.04-.12.12-.2.2-.32-.08-.08-.16-.12-.24-.2-.08.16-.16.24-.28.44.16.04.24.04.32.08zM2.8 12.48c0 .08.04.12.04.24.24-.16.24-.36.16-.6-.04-.04-.12-.04-.16-.08-.08.12-.16.24-.28.36.12.04.16.08.24.08zm8.68 9.96c.04.04.04.08.04.04h-.04l.12-.48c-.12 0-.28-.32-.44 0-.04 0-.08.04-.08.04 0 .04.04.04.08.04 0 .12.04.24.08.36h.24zm-7.4 6c.36.2.36.2.68-.2-.76-.08-1.2-.04-1.36.28.08.04.12.04.2.08-.04.08-.08.16-.08.28.12.12.28.2.52.4 0-.48.36-.44.72-.56-.36-.04-.56-.08-.84-.08.08-.12.12-.16.16-.2zm.36-2.32c.28.44.68.56 1.16.56.8.04 1.56-.2 2.24-.6.24-.16.52-.32.72-.56.48-.64.84-1.36.96-2.16.08-.48.16-.92.2-1.4.08-.52.16-1.04.08-1.56-.08-.72-.08-1.44-.04-2.16.04-.84-.12-1.64-.32-2.44-.24-.88-.88-1.4-1.8-1.48-.68-.04-1.36-.12-2.04-.2-.52-.04-.92.08-1.28.44 0 .16.04.32.04.48.08.6.16 1.2.16 1.8 0 .68-.04 1.4-.08 2.12-.08.92.08 1.84.04 2.76-.12 1.48-.04 2.96-.04 4.4zm7.04-9.36c-.04-.04-.08-.04-.12-.04-.04.12-.08.28-.12.4-.12.08-.2.16-.32.28.2.08.32.16.48.24.16-.32.04-.6.08-.88zM3.16 28.72c.04-.04.08-.08.12-.08-.04-.12-.08-.24-.08-.36-.04-.08 0-.2.04-.36-.24.08-.4.16-.56.24.04.36.4.28.48.56zm.24-1.04c-.12-.28-.28-.48-.56-.6-.2.36.2.44.24.64.12 0 .2 0 .32-.04zm-1.24-9.96c.04.04.08.12.08.2.16-.16.28-.32.4-.48-.24-.04-.44-.12-.64.04v.44c.08-.12.12-.16.16-.2zm4.4-5.24c-.12.04-.24.04-.4.08.24.2.4.36.56.48.04 0 .04 0 .08-.04-.08-.16-.16-.32-.24-.52zm-3.8 8.88c-.28.28-.28.32 0 .64v-.64zm-.72 2.68c0 .04.04.08.04.08l.48-.32c-.24 0-.36-.04-.44-.04-.04.12-.08.2-.08.28zm.44 5.08c.12-.04.2-.08.36-.16l-.32-.32c0 .2-.04.32-.04.48zm-.2-4.4c.16.24.28.28.4.16.04-.04.04-.12.08-.16h-.48zm5.2 3.64c-.2-.16-.32-.2-.4-.28v.36c.12 0 .2-.04.4-.08zM4.36 12.88c.32.12.44-.04.6-.2-.16.08-.32.12-.6.2zm6.68 1.8c-.24.16-.28.28-.16.56.08-.24.12-.36.16-.56zm-8.56 3.6c-.08 0-.16-.04-.24 0-.04 0-.08.08-.16.16.12.04.24.08.32.12.04-.12.04-.2.08-.28zM3 32s-.04.04-.08.04v.16c.04.08.12.2.16.28.04 0 .04 0 .08-.04-.04-.12-.08-.28-.16-.44zm4.24-19.12c0-.28-.08-.4-.36-.4.12.16.2.24.36.4zm-4.68 1.88c.08.04.12.12.2.16.04-.12.08-.2.12-.28-.04-.04-.08-.04-.08-.08-.08.08-.16.12-.24.2zm8.52.8c.04.12.08.2.16.4.04-.2.08-.28.12-.4h-.28zm-.16.2c-.16.12-.32.16-.16.4.08-.16.12-.24.16-.4zm.44 7.48c.2.2.2.2.32 0h-.32zm-3.8 5.16c.16-.32.16-.32-.04-.44.04.12.04.24.04.44zM2.8 36.8c-.12-.24-.2-.24-.36-.04.12.04.24.04.36.04zm1.96-7.4h-.08c0 .08-.04.12-.04.2h.12v-.2zm6.4-8.48s.04 0 .08-.04c-.04-.04-.04-.08-.04-.16-.04 0-.12.04-.16.04.04.08.08.12.12.16zm.2 2.96c.04.04.08.04.12.08l.12-.24c-.04-.04-.04-.04-.08-.04-.04.04-.08.12-.16.2zm-1 2.76c0-.04.04-.04.04-.08-.04-.04-.08-.04-.16-.08v.04zm-1.24 0-.04-.04c-.04.04-.08.08-.12.16 0 0 .04 0 .04.04.04-.04.08-.12.12-.16zm-2 2.08-.08.08c.04.04.08.08.16.08l.04-.04zm-4.56-6.48c.04.04.04.04.08.04l.12-.12c-.04-.04-.04-.04-.08-.04zm-.12-.68c-.08 0-.12-.04-.12 0-.04.04-.04.08-.08.16.08-.04.12-.08.2-.16zm9.32-.52.08-.08c0-.04-.04-.12-.04-.12-.04-.04-.12 0-.24 0zm-2.88 6.68c.04-.16.04-.28-.16-.12.04.04.08.08.16.12zm2.88-7.24c.04.04.04.04.04.08.04 0 .12 0 .2-.04v-.04h-.24zm-8.68-4.04v-.04h-.24v.08c.08-.04.16-.04.24-.04zm7.64-.84s.04 0 .04-.04c-.04-.04-.08-.08-.12-.16 0 .04-.04.04-.04.08zm-1.84-3.08-.04-.04c0 .04-.04.08-.04.16h.08v-.12zm-6.4.48c.08-.04.04 0 0 0 .04 0 .08.04 0 0zm9 11.76-.04-.04h-.12v.08c.04-.04.08-.04.16-.04zm-8.52.68H3v-.12h-.04v.12zm7.2.16c0-.04-.04-.08-.04-.08-.04 0-.08.04-.08.08h.12zm.48.2h-.04v.12h.04v-.12zm-.64 0h-.08.08zm-7.36-2.24H2.6v.16h.04v-.16zM3 36.84h-.08c.04.04.04.08.04.16.04 0 .04-.04.08-.04 0-.04-.04-.08-.04-.12zm.2-7.76v.04h.12v-.04H3.2zm-.48-5.76v.08c.08-.04.12-.04.16-.04v-.08c-.04 0-.12 0-.16.04zm7.68 2.32-.04.04v.12h.04v-.16zm-8.36-6.2c.04.04.04.04.08.04l.04-.04h-.12zm3.12-6.92c.04 0 .04 0 .04.04v-.16c0 .04 0 .08-.04.12zm5.68 12h.04v-.16h-.08c0 .08.04.12.04.16zm-8.52 3.36c-.04.04-.08.04-.12.08.04 0 .08.04.08.08 0-.04.04-.12.04-.16zm2.48.08c-.04-.04-.04-.08-.04-.08H4.6v.08h.2zM3.24 17.6v-.04c-.04 0-.12 0-.16-.04v.08h.16zM12 22.4h.12H12zm-1.16 0h.12-.12zm-8.52-5.32H2.2c0 .08.04.16.04.2h.08v-.2zm.2 14.68h-.04v.16c.04 0 .04 0 .04-.04v-.12zm.36-16.56h-.04v.16h.04v-.16zm.08-.36c.16.04.2.08.24.08 0 0 0-.04.04-.04-.04 0-.12 0-.28-.04zM5 12.28l-.04-.04v.04c0 .04 0 .04.04.04v-.04zm3.28.36h-.04v.04zm-4.6.16.04-.04h-.04v.04zm2.12-.04h-.04l.04.04v-.04zm4.2 1.08h.04v-.04H10v.04zm.96.32v.04H11c0-.04-.04-.04-.04-.04zM2.16 29.2h-.04l.04.04v-.04zm2.2 0 .04.04v-.04h-.04zm-1.8.24c-.04 0-.04 0-.04-.04 0 .04-.04.04-.04.04s0 .04.04.04c0 0 0-.04.04-.04zm.04 4.24h.04v-.04zm.04.72v-.04H2.6zm7.48-9.12v.08c.04 0 .04 0 .04-.04zm-7.8 9.68c-.04 0-.04-.04-.04-.04s-.04 0-.04.04c0 0 .04 0 .04.04 0 0 0-.04.04-.04zm.44.24v-.04c0 .04 0 .04-.04.08.04 0 .04-.04.04-.04zm7.8-10.68h.04v-.04zM1.8 38.48zm5.88-25.8v-.04.04zm3.08 9.96-.04-.04v.04h.04zm-7.08 4.6s.04 0 .04-.04l-.04-.04-.04.04zm-1.76.12.04-.04-.04-.04-.04.04zm7.64-.08v.08l.04-.04s-.04 0-.04-.04zm1.64-6.16v-.04.04zm-3.96 6.44-.04-.04-.04.04.04.04zm4.68-8.36-.04.04h.04v-.04zm-.4-.4c.04 0 .04-.04.04-.04v-.04c-.04 0-.04.04-.04.04v.04zm-9.44 7.48-.04-.04v.08c0-.04.04-.04.04-.04zm9.84-7.88h-.04v.04zM5 27.92s0-.04-.04-.04v.08c.04 0 .04-.04.04-.04zM2.76 17.8l-.04.04h.04v-.04zm-1.08-1.16h.04-.04zm9.56-.48h-.08c0 .04 0 .04.04.04zm.52-.36v.04h.04c0-.04 0-.04-.04-.04zm-8.44-.12v.04h.04zm4 12.4c0-.04.04-.04.04-.04s0-.04-.04-.04c0 0 0 .04-.04.04.04 0 .04.04.04.04zm4-13.08h-.04.04zM4.08 28.44c.04 0 .08-.04.04 0 0-.04 0-.04-.04 0zm7.04-6.32.08-.08-.08-.08v.16zM2.8 12.48c0-.04.04-.04.04-.04zm.36 8.68-.12-.12v.12h.12zm-.12-.6v.12l.12-.12h-.12zm23.461 9.2c.4 1.44.84 2.96 1.28 4.48.28.96.64 1.92.92 2.92.2.68.44 1.36.84 2 .12.2.2.4.32.68-.36.08-.68.2-1.04.2-1.08.04-2.16 0-3.28 0-.08 0-.16 0-.24-.04-.12-.48-.12-.48.12-1.48-.68-2.68-1.52-5.36-2.48-8.04-.36-.24-.68-.2-1.08-.08-.32.16-.68.28-1.08.44-.08.08-.16.24-.24.32-.24.96-.16 1.88-.16 2.8v3.16c0 .8.08 1.56.44 2.28.08.08.08.16.12.32-.48.2-1.04.08-1.56.12s-1.08.08-1.6.08c-.52.04-1.04.08-1.6-.04v-.52c.16-.92.28-1.84.44-2.76v-.52c0-1.08-.04-2.12.04-3.16.12-1.48.08-2.96.12-4.4 0-.92.08-1.8.08-2.68 0-.8-.08-1.6-.12-2.4 0-2.56.04-5.12 0-7.64 0-1.12-.04-2.28-.12-3.4 0-.28-.12-.52-.24-.76-.04-.16-.08-.28-.16-.48.44-.24.92-.28 1.36-.36.48-.12.92.04 1.36.08.32.04.6.08.88.08.4-.04.84-.04 1.24-.12.72-.12 1.44 0 2.2.04.64 0 1.32.12 1.96.24.32.04.6.24.92.36 1.2.64 1.96 1.6 2.36 2.92.28.76.44 1.52.44 2.32 0 .96.08 1.92.12 2.88 0 .32-.04.6 0 .92.08.76-.16 1.52-.24 2.28-.24 1.36-.56 2.72-1.04 4.04-.16.48-.4.92-.8 1.28-.28.24-.4.56-.4.92 0 .24-.04.44-.08.72zm1.28-13.52c.04-.04.04-.04.04-.08 0 .04-.04.04-.04.08-.04 0-.04.04-.04.08 0-.04.04-.04.04-.08zm-.84 2.24c.04 0 .08 0 .08.04 0-.04-.04-.04-.04-.08h-.08s.04 0 .04.04zm-.2 3.52c0-.04.04-.04.04-.08-.04.04-.04.04-.08.04 0 .04-.04.08-.04.08.04 0 .04-.04.08-.04zm-2.36 5.16.04.04-.04-.04c-.04-.04-.04-.04-.04-.08 0 .04 0 .04.04.08zm1.04 1.84c.04 0 .08 0 .08-.04 0 0-.04-.04-.08-.04v-.12c.12-.08.16-.16 0-.24l-.12-.12c-.04.04-.04.08-.04.08.04.04.12.04.16.04v.24h-.16v.08c.04 0 .12 0 .2.04v.12l-.08.08c0-.04.04-.08.04-.12zm-.44-15.12c-.04 0-.08-.04-.08-.04l.04.04c.04.04.04.04.08.04zm-2.72-.6c-.04.04-.04.04-.04.08 0-.04.04-.04.04-.04.04-.04.04-.08.04-.04h-.04zm-4.36 19.28c0-.04-.04-.04-.04-.04s.04 0 .08.04c.04 0 .08.04.16.08v-.04c-.04-.04-.12-.04-.2-.04zm8.68-9.52c0-.04 0-.08.04-.12.08-.08.16-.2.24-.28-.08-.08-.16-.12-.24-.2v.48c-.04 0-.08.04-.08.04 0 .04.04.04.08.08 0 .08 0 .12.04.2 0 0 .04-.04.08-.04zm-.44 10.2c-.04.08-.08.12-.12.16.04 0 .04.04.08.04 0-.08.04-.12.04-.2 0 0 .04-.04.04-.08 0 .04-.04.08-.04.08zm1.28-16.4c0-.08 0-.12-.04-.2l-.04.04c.04.04.04.08.08.12.08.08.12.16.2.2 0 0 .04-.04.04-.08-.08-.04-.16-.04-.24-.08zm-8.2-3.44c.04-.04.24.04.16-.2-.08.08-.12.16-.16.24h-.04c0 .04 0 0 .04-.04zm4.32-.68c-.04 0-.04-.04-.08-.04.04 0 .08 0 .12.04 0 .16-.12.4.2.32 0 .16 0 .28.24.2-.08-.08-.16-.12-.24-.16.04-.2-.04-.32-.24-.36zm1.88 17.48c-.24-.12-.4-.04-.6.24.28-.04.48-.04.6-.24l.08-.08zm-6.8-10c.16-.04.36-.08.56-.16-.24-.12-.44-.28-.64 0 .04.08.08.12.08.2-.04 0-.12 0-.24.04.04.12.08.2.12.28 0 0 .04 0 .08-.04 0-.08.04-.2.04-.32zm8.8-.92c0-.04 0-.12-.04-.2-.04-.04-.08-.04-.12-.08-.04.04-.08.08-.2.24.24 0 .32.04.36.04-.04.16 0 .32.16.44.04.04.12 0 .2 0-.04-.16-.08-.28-.12-.44h-.24zm-9.16 7.64c.08.04.12.08.2.08.04 0 .12-.04.16-.08.04 0 .04.04.04 0 0 .04 0 0-.04 0-.04-.08-.08-.16-.12-.28.2-.04.4-.08.68-.12-.28-.12-.48-.2-.68-.28-.16.2-.24.4-.24.68 0 .04-.04.12-.08.16.04 0 .04.04.08.04v-.2zm2.44-.44c.4.32.92.24 1.4.2.64-.04 1.28-.2 1.76-.64.72-.72 1.2-1.6 1.32-2.64.12-.88.16-1.8.24-2.72.08-1.4.04-2.84-.24-4.24 0-.16-.04-.32-.12-.44-.24-.36-.48-.72-.76-1.04-.08-.12-.24-.24-.4-.32-.52-.2-1.04-.44-1.64-.2-.12.04-.28.04-.4.04-.64.04-1.04.36-1.12 1-.08.68-.16 1.4-.24 2.12-.04.36-.12.72-.12 1.12v2.56c.04 1.72-.12 3.44.32 5.2zm5.12-13.16c-.04.24-.04.44-.08.68.24-.08.48-.12.68-.16-.12-.16-.24-.36-.36-.52h-.24zm.52 20.72c-.28-.28-.52-.36-.84-.44.12.2.16.36.24.48.2 0 .36-.04.6-.04zm.84-12.92c.04.08.04.16.04.24.24.04.36 0 .44-.2-.16-.16-.28-.16-.48-.04zm-1.76-7.52c.04-.12.08-.2.08-.28h-.44c-.04 0-.04.08-.12.16zm1.64 9.24c-.04 0-.08.04-.12.04.08.16.12.32.2.56.04-.24.08-.36.12-.52-.08-.04-.16-.08-.2-.08zm-7.52 4.68v-.12c-.12-.04-.24-.08-.4-.12 0 .12-.04.2-.04.36.2-.04.32-.08.44-.12zm-1.28 11.04.36-.24c-.24 0-.4-.04-.68-.08zm-.12-1.8h.56c-.24-.16-.36-.24-.52-.32 0 .12-.04.2-.04.32zm.52-21.12v.6c.24-.2.24-.2 0-.6zm7.72-2.84c-.08.12-.16.2-.28.28l.08.08c.12-.04.24-.12.4-.16zm-7.96 1.64c.32-.04.32-.04.48-.36zm-.08 13.08s-.04.04-.04.08l.28.28c.08-.12.08-.16.16-.28-.16-.04-.28-.08-.4-.08zm.52-10.36c.12-.28.16-.4-.08-.44 0 .04-.04.12-.04.16s.04.12.12.28zm7.92-1.36c0 .2.04.36.32.28-.12-.12-.2-.2-.32-.28zm-.28 9.6h-.52c.16.12.24.16.32.2.08-.04.12-.12.2-.2zm-8.36-12.92c0-.04-.04-.08-.04-.08l-.24.12c.04.04.04.08.04.08zm2.92 16.8h-.08c.04.08.04.12.04.16.08 0 .12 0 .16-.04zm4.4 4.12.08.08c.08-.04.12-.12.2-.16 0-.04-.04-.04-.04-.08-.08.04-.16.12-.24.16zm-1.64-20.88c0 .04 0 .08-.04.2.12-.04.2-.04.32-.04v-.08c-.08-.04-.16-.04-.28-.08zm-4.48 3.84c-.12 0-.24.04-.4.04.12.08.16.12.24.2.04-.08.08-.12.16-.24zm4.48 12.96c.08-.16.16-.2.16-.24l-.16-.16v.4zm-4.56 1.24c.04-.2.04-.2-.2-.32.08.12.12.24.2.32zm-1.04 5.28s-.04.04-.04.08c.08.04.16.08.28.12 0-.04 0-.04.04-.08-.12-.04-.2-.08-.28-.12zm1-6.76c-.04-.04-.08-.04-.08-.04-.08.04-.12.08-.16.16.04 0 .08.04.12.04.04-.04.08-.12.12-.16zm7.8 9c0 .04-.04.08-.04.12s.08.08.12.04c0 0 .04-.08.04-.12 0 0-.04 0-.12-.04zm-8.84-16.76c.04.08.08.12.16.2.04-.08.08-.12.16-.2h-.32zm3.52-8.44c.04 0 .04-.04.08-.04-.04-.04-.12-.08-.16-.12 0 .04 0 .04-.04.08.04.04.08.08.12.08zm5.2 10.8v.04h.24v-.04h-.24zm-8.12-10.04h.04v-.28s-.04 0-.04-.04v.32zm-.2 5.72v-.04h-.24v.08c.08 0 .16 0 .24-.04zm9.04-3.28c0-.04-.04-.04-.04-.08l-.12.12c0 .04 0 .04.04.08zm-9.8 19c0 .08-.04.12-.08.16.04.04.08.04.12.08l.12-.12c-.04-.04-.08-.08-.16-.12zm1.2-2.4v.08h.28c-.2-.04-.24-.08-.28-.08zm-.48 1.92h.16v-.04c-.04 0-.08.04-.16.04zm.04.48h-.04v.16c.04 0 .04 0 .08-.04 0-.04-.04-.08-.04-.12zm1.32-23.28c-.04.04-.08.04-.08.04 0 .04.04.08.04.12 0-.04 0-.08.04-.16zm-2.28-.12c.16.04.16.04.2.04 0 .04.04 0 .04 0-.04 0-.08-.04-.24-.04zm7.28 16v.04h.12v-.08c-.04 0-.08.04-.12.04zm2.68-8.68h.04v-.16l-.04.04V19zm-8.48-.32c-.08-.04-.08-.08-.08-.08-.04 0-.08.04-.12.04.04 0 .12 0 .2.04zm-.64-.04-.04-.04c-.04 0-.08.04-.12.04 0 0 0 .04.04.04s.08 0 .12-.04zm8.92-.84h-.04v.12h.08c-.04-.04-.04-.08-.04-.12zm.48-.92h-.04V17h.04v-.12zm-8.44 15.72h-.04v.12h.04v-.12zm3-4.12v.04h.12v-.04h-.12zm-3.4 10.24h.04v-.12h-.04v.12zm.4-26.08h-.04v.04zm1.72.04.04-.04h-.04v.04zm-2 .4-.04.04.04.04c0-.04 0-.04.04-.08h-.04zm6.24.8v.08l.04-.04s-.04 0-.04-.04zm-6.2.28h-.08l.04.04c.04 0 .04 0 .04-.04zm-1.2.4v-.04.04zm7.48 13.72h.04v-.04zm-5.12.12v-.04h-.04zm6.12-2.36h-.08l.04.04zm-8.28 3.4.04.04v-.04h-.04zm-.28.36-.04-.04v.04h.04zm.32.12h-.04.04zm.24-.04-.04.04h.04v-.04zm6.92.76.04-.04s-.04 0-.04-.04c0 .04-.04.04-.04.04 0 .04 0 .04.04.04zm1.32-4.84-.04-.04v.08c0-.04.04-.04.04-.04zm-2.28 4.92v.04h.04zm-5.28 1.2.04-.04zm6.32-5.28.04-.04h-.04v.04zm-.32 5.96.04.04zm-6.32.12s0-.04-.04-.04c0 0 0 .04-.04.04.04 0 .04.04.08.04v-.04zm6.32.12zm1.52-7.28v.04-.04zm-7.48 8.12c0-.04 0-.04-.04-.04v.04h.04zm7.96-8.36h-.04l.04.04v-.04zm-7.64 8.96v-.04.04zm-.92 1.12-.04.04h.04v-.04zm7.84.6v.04V36zm-7.28-9.24.04-.04h-.04v.04zm8.4 11c-.04 0-.04 0-.04-.04v.08zm-.6-13.72-.04-.04s-.04 0-.04.04l.04.04zm-8.84-1.76zm6.2 5.2.04-.04h-.04v.04zm2.36-6.8.04-.04h-.04v.04zm-7.44-.88.04.04v-.04h-.04zm-.2-.12v.04h.04zm-.68 8.2v.08l.04-.04zm.12-9.92v-.04h-.04zm9.4-2.4v.04h-.04zm-3.52 12.48s0 .04-.04.04v-.04h.04zm22.061-2.68c0 2.96.04 5.44-.04 7.88-.04 1.84-.6 3.52-1.96 4.84-.2.16-.36.36-.56.56-.8.88-1.84 1.28-2.96 1.48-.48.08-.96.16-1.44.2-.64.08-1.32-.04-1.88-.36-.88-.48-1.72-1-2.6-1.56-.76-.48-1.04-1.28-1.24-2.12-.12-.68-.28-1.4-.4-2.12-.12-.64-.28-1.32-.32-2-.2-3.52-.04-7.08-.12-10.6 0-.24-.04-.52-.08-.76v-.48c.04-.56.04-1.12.08-1.64l.24-1.56c.12-.64.24-1.24.32-1.84.12-1.04.68-1.84 1.36-2.6.16-.2.36-.44.52-.64.12-.08.2-.2.32-.28.4-.24.76-.52 1.2-.68.32-.16.68-.2 1.04-.28.4-.08.76-.16 1.16-.2.2-.04.44-.08.64-.04 1.16.2 2.28.52 3.32 1.08.88.48 1.72 1.12 2.08 2.2.2.52.44 1.04.68 1.52.28.68.44 1.36.52 2.08.24 2.84 0 5.64.12 7.92zm-12.08 6.28c-.04 0-.08 0-.08-.04 0 .04.04.04.04.08l.12.12h.16v-.08s0 .04-.04.04v.2h-.08v-.2zm10.92-9.96s0 .04.04.04c-.04 0-.04 0-.08-.04l-.12-.12-.12-.12c-.12.16-.2.28-.32.48.2 0 .32-.04.44-.04v-.2h.16zm-.84-2.72h-.04c0-.04 0 0 .04.04 0 0 .04.04 0 0 .04.04 0 0 0-.04zm-10.12-.56c.04-.04.04-.04.08-.04l-.04.04h-.16s-.04-.04-.08-.04c.04 0 .08 0 .12.04 0 .04.04.04.04.08.04-.04.04-.04.04-.08zm-.08-.84c-.04 0-.04-.04-.08-.04.04 0 .04.04.04.08.04 0 .08 0 .12.04-.04-.04-.08-.04-.08-.08zm1.04 18.8c-.04-.04-.04-.04-.04-.08l-.08.08c0 .04-.04.04-.08.04.04.04.08.04.08.08 0 .08 0 .2.04.32h.04c0-.12.04-.24.04-.32l.08-.08c-.04 0-.04 0-.08-.04zm2.6 2.36c-.04.04-.08.08-.12.16h.08v-.16c.16-.04.16-.12.04-.28v.28zm-3.68-20.8c.08 0 .16 0 .24-.04-.04 0-.04-.04-.04-.08-.08.04-.12.08-.16.12s-.04.04-.08.04c.04 0 .04 0 .04-.04zM45.002 21c-.04.04-.12.08-.2.16.12.04.2.04.28.04l-.12-.24h.04V21zm-9.64-3.2c.04.04.12.08.16.12.04-.04.04-.04.04-.08-.08 0-.12 0-.2-.04-.08 0-.12-.04-.16-.08-.04.04-.04.12-.12.2.16-.04.2-.08.28-.12zm-1.04 10.56c0 .04.04.04.08.08-.04-.04-.08-.04-.12-.04v-.32c-.04 0-.08 0-.12.04.08.08.12.16.16.24zm1.4-13.48s.04.04.08.04c-.04 0-.08-.04-.08-.04-.04-.08-.04-.12-.04-.24-.12 0-.2.04-.4.04.2.08.32.12.44.2zm5.76-1.88c-.04-.12-.04-.2-.08-.4-.12.16-.2.24-.28.32.08.2.2.16.36.08 0 .04.04.08.04.08.28-.12.56-.2.88-.16.04 0 .04-.04.08-.08-.48-.16-.48-.16-.88-.04-.04.08-.08.16-.12.2zm-6.6 10.08c.16 0 .24-.12.2-.28h-.16c.04-.12.04-.24.08-.4-.24.08-.4.12-.52.16.12.16.28.36.4.52h-.16c-.04.16-.08.32-.16.6l.4-.4c-.04-.08-.04-.12-.08-.2zm3.4 15.52c.04 0 .04.04.04.04s0-.04-.04-.04c.04-.12.24-.24.04-.44-.28 0-.64 0-1 .04.04.12.04.24.08.36.2-.2.44-.2.68-.16.08.08.16.12.2.2zm-2.32-3.56c0 .04.04.08.04.08s-.04-.04-.08-.04c-.04-.36-.08-.68-.16-1.04-.04 0-.08-.04-.16-.04l.24-.24s0-.04.04-.08h-.36c-.04.08-.08.2-.16.32.12 0 .16.04.2.04-.04.24-.08.52-.12.8.12.16.12.16.12.4-.16.16-.32.28-.52.48.28.08.52.16.76.24 0 .04.04.08.12.16.2 0 .4 0 .6-.04-.08-.12-.12-.24-.2-.36-.2-.04-.44-.04-.64-.04.08-.2.08-.4.16-.6 0 0 .04 0 .12-.04zm6.88-16.68c0-.2-.04-.44-.08-.64-.12-.76-.32-1.44-.68-2.12-.32-.52-.76-.88-1.32-1.08-.4-.12-.8-.16-1.2-.24-.36-.04-.68-.04-.96.2-.44.36-.84.68-1.24 1.08-.48.48-.56 1.12-.6 1.8 0 .44-.04.92-.2 1.36-.08.24-.12.48-.16.76-.04 1.4-.08 2.84-.12 4.28 0 2.52-.04 5.04.36 7.56.12 1.04.36 2.04.68 3 .28.96.84 1.44 1.76 1.64.12.04.28.08.4.08h1.44c.48-.2.8-.48 1-.8.4-.72.72-1.44.72-2.28l.12-3.12c.04-1.24.08-2.48.08-3.72 0-.32-.08-.64-.08-.92v-6.04c0-.24.08-.48.08-.8zm1.2 14.64c0 .12.04.2.04.24.2.08.36.16.52.24.12.04.2.04.28.04-.08-.2-.16-.4-.24-.56-.2 0-.36.04-.6.04zm.08-7.76c.4.24.68.28.76 0-.04-.08-.12-.16-.2-.28-.2.08-.32.16-.56.28zm.36-7.12c.08.24.16.36.2.48.12.04.24.08.36.16-.04-.28-.08-.48-.12-.72-.12.04-.24.08-.44.08zm.2 11.8c-.28.08-.52.12-.8.2.24.12 1.04.2 1.08.12v-.16c-.08 0-.2.04-.28.04v-.2zm-.96 5h.68c-.12-.2-.2-.32-.28-.44-.28.16-.28.16-.4.44zm-8.64-.84c.28-.36 0-.72.28-1-.12-.04-.2-.08-.32-.16.04.16.08.24.08.32s-.08.2-.08.32.04.28.04.52zm9.24-2c.04-.16.04-.28.08-.4-.12-.04-.2-.08-.28-.16-.12.12-.2.2-.32.36.2.04.36.12.52.2zm-9.76-4.68.28-.28-.24-.36c-.28.2-.2.4-.04.64zm9.56 2.04c-.04.08-.12.12-.16.16.12.24.28.2.48.16 0 0 .04-.04.08-.12-.12-.08-.24-.12-.4-.2zm-9.84-9.08c.2 0 .32 0 .48-.04.04-.08.04-.16.08-.24h-.44c-.04.12-.08.16-.12.28zm1.52-7s0 .04-.04.04l.04.04c.16 0 .2.32.48.24-.12-.24-.24-.32-.48-.32zm-.64 8.08c-.24-.24-.4-.32-.52 0h.52zm-.2-2.64c.04-.48.04-.48-.2-.6.08.16.12.32.2.6zm1.28-4.52h.16c.04-.16.08-.32-.2-.44 0 .16.04.32.04.44zm7.92 2.32c-.2.16-.2.16-.16.44.04-.16.12-.28.16-.44zm-9.44 16c0-.12.04-.2.04-.4-.16.16-.24.24-.36.4h.32zm-.04-13.64c-.08-.04-.12-.04-.2-.08-.04.12-.04.2-.08.4.16-.16.2-.24.28-.32zm.2.68c-.2-.08-.32-.12-.48-.24.04.16.04.24.04.32.12-.04.24-.04.44-.08zm3.16-6.48c-.12 0-.2-.04-.32-.04.08.16.16.28.32.04zm1.32 26.12c-.12-.16-.12-.16-.28-.16.08.08.2.12.28.16zm5.16-16c-.32 0-.4.12-.36.32.08-.08.16-.16.36-.32zm-9.88 5.56c0-.12-.04-.2-.04-.44-.12.2-.16.28-.2.36.08.04.16.04.24.08zm5.24 8.36c-.08.2-.08.28.16.32-.08-.12-.12-.2-.16-.32zm4.68-11.32c-.08.08-.12.12-.12.16l.04.08c.04 0 .08-.04.12-.04 0-.08-.04-.12-.04-.2zm-9.48 8.84c0 .04-.04.08-.08.12.08.04.12.04.2.08 0 0 .04-.04.04-.08-.04-.04-.08-.08-.16-.12zm3.8 2.76c-.2-.12-.28-.08-.36.16.16-.08.24-.12.36-.16zm-4.68-6.6.08.08c.04-.04.08-.12.12-.16l-.08-.08c-.04.04-.08.08-.12.16zm-.32-9.76c0 .04 0 .08-.04.08.04.04.08.08.16.08l.04-.08c-.04-.04-.08-.04-.16-.08zm10.72 2.52c0-.04-.04-.04-.08-.08l-.12.12c0 .04.04.08.08.12.04-.04.08-.12.12-.16zm-8.2-10.76-.08.08.16.16c0-.04.04-.04.04-.08-.04-.04-.08-.12-.12-.16zm1.6.04V13c.08-.04.16-.04.24-.04l-.04-.04h-.2zm6.52 13.92c.04 0 .08-.04.08-.08l-.12-.12-.04.04c.04.08.04.12.08.16zm-.72-9.36c.04.04.04.04.08.04.04-.04.12-.04.16-.08l-.08-.08c-.04.04-.08.08-.16.12zm-9.12.36.04.04c.04-.04.12-.04.16-.08l-.08-.08zm9.68-.04c-.04-.04-.04-.08-.04-.08h-.2v.08h.24zm.8.64c0 .04.04.04.08.08 0-.08.04-.12.04-.16s0-.04-.04-.04c-.04.04-.08.08-.08.12zm-11.04.36c0 .04-.04.04-.04.08.04.04.08.08.16.08l.04-.04c-.04-.04-.12-.08-.16-.12zm6.72 18.88c-.04 0-.04.04-.08.08.04.04.12.08.16.12.04 0 .04-.04.04-.04-.04-.08-.08-.12-.12-.16zm3.96-18.28.04-.04c-.04-.04-.08-.08-.12-.08 0 0-.04 0-.04.04.04.04.08.04.12.08zm-.76.44.08.08c.04-.04.08-.12.16-.16-.04 0-.04-.04-.08-.04-.04.04-.12.08-.16.12zm-8.92 12.2c-.04 0-.04.04-.08.04.04.04.08.08.12.16l.08-.08zm-.92-9.72h.08v-.24h-.08v.24zm.76 10.48c0-.04-.04-.04-.04-.08l-.12.12c0 .04 0 .04.04.08zm9.4 2.72v-.04h-.16v.04h.16zM40.602 12v-.04c-.04 0-.12.04-.16.04l.04.04c.04 0 .08 0 .12-.04zm-5.64 13.76v-.04h-.12v.04h.12zm2.96-13.36v-.08h-.2c0 .04 0 .04.04.08h.16zm2.76.48h.04v-.16h-.04v.16zm3.4 13.44v.04c.04 0 .12-.04.16-.04 0 0 0-.04-.04-.04s-.08 0-.12.04zm-.8-12.4v-.08h-.12v.08h.12zm-7 22.4-.08-.08c0 .04-.04.08-.08.08h.16zm-.6.2h-.04v.16h.04v-.16zm-.84-8.96c0 .04-.04.08-.04.08 0 .04.04.04.04.08v-.16zm1.64 9.56v-.04c-.08 0-.12 0-.16.04v.04c.08 0 .12 0 .16-.04zm-2-8.08c-.08 0-.04 0 0 0-.04 0-.08-.04 0 0zm9.72 2.16v.08h.16v-.08h-.16zm-9.84-11.36v.04h.12v-.04h-.12zm10.08 14.8c.08 0 .04 0 0 0 .04.04.08.04 0 0zm-9.36-10.2v-.04c-.04.04-.08.04-.12.04v.04c.04 0 .08 0 .12-.04zm-.48.8v.08c.04 0 .08-.04.16-.04v-.04h-.16zm9.68 8.72h.08v-.16h-.04c-.04.08-.04.12-.04.16zm-8.96-10.44h-.04v.12h.04v-.12zm9.28-.28h-.04v.16h.04v-.16zm-10 10.12h-.04v.12h.04v-.12zm.36 2h-.04.04zm8.88.24h.04v-.04zm.36.24h.04v-.04zm-7.52 1.08.04-.04h-.04v.04zm-.24.44h.04-.04zm1.24 0-.04-.04v.04h.04zm1.96.04.04-.04h-.04v.04zm1.28 1v.04h.04zm-2.08.24h-.04l.04.04v-.04zm-1-26.08.04.04v-.04h-.04zm-.4.72h-.04v.04zm6 1.08-.04-.04v.04h.04zm-8.2.36-.04-.04h-.04c0 .04.04.04.04.04h.04zm7.92.2v.04l.04-.04h-.04zm1.04.4.04-.04h-.04v.04zm-.44.56-.04-.04zm-8.32.24-.04-.04v.04h.04zm-.48 1.4h-.04.04zm9.4.8-.04.04h.04v-.04zm-9.32 1.08h.04l-.04-.04v.04zm8.84 0v-.04l-.04.04h.04zm-.12.24-.04-.04v.04h.04zm.2 0h.04v-.04zm.64.48-.04-.04v.04h.04zm-9.56.24.04-.04h-.04v.04zm8.84.32v.04-.04zm-8.8.2-.04.04h.04v-.04zm10.2.2v-.04h-.04zm-1.28.28-.04.04h.04v-.04zm1.4.2v-.04h-.04zm-.12.44v-.04h-.04zm-1.28.32h-.04v.04zm-9.96.12h-.08c.04 0 .04.04.04.04s.04 0 .04-.04zm.08 1.84v.04-.04zm.6.36-.04.04h.08s-.04 0-.04-.04zm-.48.24v.04-.04zm9.64.64-.04-.04zm.2.2.04.04v-.04h-.04zm-9 1.2v-.04c-.04 0-.04 0-.04.04v.04zm-.24 1.88v-.04l-.04.04h.04zm-.56.92s0-.04-.04-.04c0 0 0 .04-.04.04l.04.04s.04 0 .04-.04zm10.28.92v.04l.04-.04h-.04zm-.56.64-.04-.04v.04h.04zm-.12.2v-.04c-.04 0-.04.04-.04.04v.04c.04 0 .04-.04.04-.04zm-9.88.16.04-.04h-.04v.04zm1.52.16v.04h.04zm-1.28 1.72.04-.04h-.04v.04zm.2.2.04.04v-.04h-.04zm9.56.16v-.04h-.04zm.8.28v.04-.04zm.32-12.6c-.04.04-.08.04-.08.08 0 0 .04.04.08.04v-.12zm-9.88 14.8h-.12v.12h.12v-.12zm27.781-11c0 2.96.04 5.44-.04 7.88-.04 1.84-.6 3.52-1.96 4.84-.2.16-.36.36-.56.56-.8.88-1.84 1.28-2.96 1.48-.48.08-.96.16-1.44.2-.64.08-1.32-.04-1.88-.36-.88-.48-1.72-1-2.6-1.56-.76-.48-1.04-1.28-1.24-2.12-.12-.68-.28-1.4-.4-2.12-.12-.64-.28-1.32-.32-2-.2-3.52-.04-7.08-.12-10.6 0-.24-.04-.52-.08-.76v-.48c.04-.56.04-1.12.08-1.64l.24-1.56c.12-.64.24-1.24.32-1.84.12-1.04.68-1.84 1.36-2.6.16-.2.36-.44.52-.64.12-.08.2-.2.32-.28.4-.24.76-.52 1.2-.68.32-.16.68-.2 1.04-.28.4-.08.76-.16 1.16-.2.2-.04.44-.08.64-.04 1.16.2 2.28.52 3.32 1.08.88.48 1.72 1.12 2.08 2.2.2.52.44 1.04.68 1.52.28.68.44 1.36.52 2.08.24 2.84 0 5.64.12 7.92zm-12.08 6.28c-.04 0-.08 0-.08-.04 0 .04.04.04.04.08l.12.12h.16v-.08s0 .04-.04.04v.2h-.08v-.2zm10.92-9.96s0 .04.04.04c-.04 0-.04 0-.08-.04l-.12-.12-.12-.12c-.12.16-.2.28-.32.48.2 0 .32-.04.44-.04v-.2h.16zm-.84-2.72h-.04c0-.04 0 0 .04.04 0 0 .04.04 0 0 .04.04 0 0 0-.04zm-10.12-.56c.04-.04.04-.04.08-.04l-.04.04h-.16s-.04-.04-.08-.04c.04 0 .08 0 .12.04 0 .04.04.04.04.08.04-.04.04-.04.04-.08zm-.08-.84c-.04 0-.04-.04-.08-.04.04 0 .04.04.04.08.04 0 .08 0 .12.04-.04-.04-.08-.04-.08-.08zm1.04 18.8c-.04-.04-.04-.04-.04-.08l-.08.08c0 .04-.04.04-.08.04.04.04.08.04.08.08 0 .08 0 .2.04.32h.04c0-.12.04-.24.04-.32l.08-.08c-.04 0-.04 0-.08-.04zm2.6 2.36c-.04.04-.08.08-.12.16h.08v-.16c.16-.04.16-.12.04-.28v.28zm-3.68-20.8c.08 0 .16 0 .24-.04-.04 0-.04-.04-.04-.08-.08.04-.12.08-.16.12s-.04.04-.08.04c.04 0 .04 0 .04-.04zM61.623 21c-.04.04-.12.08-.2.16.12.04.2.04.28.04l-.12-.24h.04V21zm-9.64-3.2c.04.04.12.08.16.12.04-.04.04-.04.04-.08-.08 0-.12 0-.2-.04-.08 0-.12-.04-.16-.08-.04.04-.04.12-.12.2.16-.04.2-.08.28-.12zm-1.04 10.56c0 .04.04.04.08.08-.04-.04-.08-.04-.12-.04v-.32c-.04 0-.08 0-.12.04.08.08.12.16.16.24zm1.4-13.48s.04.04.08.04c-.04 0-.08-.04-.08-.04-.04-.08-.04-.12-.04-.24-.12 0-.2.04-.4.04.2.08.32.12.44.2zm5.76-1.88c-.04-.12-.04-.2-.08-.4-.12.16-.2.24-.28.32.08.2.2.16.36.08 0 .04.04.08.04.08.28-.12.56-.2.88-.16.04 0 .04-.04.08-.08-.48-.16-.48-.16-.88-.04-.04.08-.08.16-.12.2zm-6.6 10.08c.16 0 .24-.12.2-.28h-.16c.04-.12.04-.24.08-.4-.24.08-.4.12-.52.16.12.16.28.36.4.52h-.16c-.04.16-.08.32-.16.6l.4-.4c-.04-.08-.04-.12-.08-.2zm3.4 15.52c.04 0 .04.04.04.04s0-.04-.04-.04c.04-.12.24-.24.04-.44-.28 0-.64 0-1 .04.04.12.04.24.08.36.2-.2.44-.2.68-.16.08.08.16.12.2.2zm-2.32-3.56c0 .04.04.08.04.08s-.04-.04-.08-.04c-.04-.36-.08-.68-.16-1.04-.04 0-.08-.04-.16-.04l.24-.24s0-.04.04-.08h-.36c-.04.08-.08.2-.16.32.12 0 .16.04.2.04-.04.24-.08.52-.12.8.12.16.12.16.12.4-.16.16-.32.28-.52.48.28.08.52.16.76.24 0 .04.04.08.12.16.2 0 .4 0 .6-.04-.08-.12-.12-.24-.2-.36-.2-.04-.44-.04-.64-.04.08-.2.08-.4.16-.6 0 0 .04 0 .12-.04zm6.88-16.68c0-.2-.04-.44-.08-.64-.12-.76-.32-1.44-.68-2.12-.32-.52-.76-.88-1.32-1.08-.4-.12-.8-.16-1.2-.24-.36-.04-.68-.04-.96.2-.44.36-.84.68-1.24 1.08-.48.48-.56 1.12-.6 1.8 0 .44-.04.92-.2 1.36-.08.24-.12.48-.16.76-.04 1.4-.08 2.84-.12 4.28 0 2.52-.04 5.04.36 7.56.12 1.04.36 2.04.68 3 .28.96.84 1.44 1.76 1.64.12.04.28.08.4.08h1.44c.48-.2.8-.48 1-.8.4-.72.72-1.44.72-2.28l.12-3.12c.04-1.24.08-2.48.08-3.72 0-.32-.08-.64-.08-.92v-6.04c0-.24.08-.48.08-.8zm1.2 14.64c0 .12.04.2.04.24.2.08.36.16.52.24.12.04.2.04.28.04-.08-.2-.16-.4-.24-.56-.2 0-.36.04-.6.04zm.08-7.76c.4.24.68.28.76 0-.04-.08-.12-.16-.2-.28-.2.08-.32.16-.56.28zm.36-7.12c.08.24.16.36.2.48.12.04.24.08.36.16-.04-.28-.08-.48-.12-.72-.12.04-.24.08-.44.08zm.2 11.8c-.28.08-.52.12-.8.2.24.12 1.04.2 1.08.12v-.16c-.08 0-.2.04-.28.04v-.2zm-.96 5h.68c-.12-.2-.2-.32-.28-.44-.28.16-.28.16-.4.44zm-8.64-.84c.28-.36 0-.72.28-1-.12-.04-.2-.08-.32-.16.04.16.08.24.08.32s-.08.2-.08.32.04.28.04.52zm9.24-2c.04-.16.04-.28.08-.4-.12-.04-.2-.08-.28-.16-.12.12-.2.2-.32.36.2.04.36.12.52.2zm-9.76-4.68.28-.28-.24-.36c-.28.2-.2.4-.04.64zm9.56 2.04c-.04.08-.12.12-.16.16.12.24.28.2.48.16 0 0 .04-.04.08-.12-.12-.08-.24-.12-.4-.2zm-9.84-9.08c.2 0 .32 0 .48-.04.04-.08.04-.16.08-.24h-.44c-.04.12-.08.16-.12.28zm1.52-7s0 .04-.04.04l.04.04c.16 0 .2.32.48.24-.12-.24-.24-.32-.48-.32zm-.64 8.08c-.24-.24-.4-.32-.52 0h.52zm-.2-2.64c.04-.48.04-.48-.2-.6.08.16.12.32.2.6zm1.28-4.52h.16c.04-.16.08-.32-.2-.44 0 .16.04.32.04.44zm7.92 2.32c-.2.16-.2.16-.16.44.04-.16.12-.28.16-.44zm-9.44 16c0-.12.04-.2.04-.4-.16.16-.24.24-.36.4h.32zm-.04-13.64c-.08-.04-.12-.04-.2-.08-.04.12-.04.2-.08.4.16-.16.2-.24.28-.32zm.2.68c-.2-.08-.32-.12-.48-.24.04.16.04.24.04.32.12-.04.24-.04.44-.08zm3.16-6.48c-.12 0-.2-.04-.32-.04.08.16.16.28.32.04zm1.32 26.12c-.12-.16-.12-.16-.28-.16.08.08.2.12.28.16zm5.16-16c-.32 0-.4.12-.36.32.08-.08.16-.16.36-.32zm-9.88 5.56c0-.12-.04-.2-.04-.44-.12.2-.16.28-.2.36.08.04.16.04.24.08zm5.24 8.36c-.08.2-.08.28.16.32-.08-.12-.12-.2-.16-.32zm4.68-11.32c-.08.08-.12.12-.12.16l.04.08c.04 0 .08-.04.12-.04 0-.08-.04-.12-.04-.2zm-9.48 8.84c0 .04-.04.08-.08.12.08.04.12.04.2.08 0 0 .04-.04.04-.08-.04-.04-.08-.08-.16-.12zm3.8 2.76c-.2-.12-.28-.08-.36.16.16-.08.24-.12.36-.16zm-4.68-6.6.08.08c.04-.04.08-.12.12-.16l-.08-.08c-.04.04-.08.08-.12.16zm-.32-9.76c0 .04 0 .08-.04.08.04.04.08.08.16.08l.04-.08c-.04-.04-.08-.04-.16-.08zm10.72 2.52c0-.04-.04-.04-.08-.08l-.12.12c0 .04.04.08.08.12.04-.04.08-.12.12-.16zm-8.2-10.76-.08.08.16.16c0-.04.04-.04.04-.08-.04-.04-.08-.12-.12-.16zm1.6.04V13c.08-.04.16-.04.24-.04l-.04-.04h-.2zm6.52 13.92c.04 0 .08-.04.08-.08l-.12-.12-.04.04c.04.08.04.12.08.16zm-.72-9.36c.04.04.04.04.08.04.04-.04.12-.04.16-.08l-.08-.08c-.04.04-.08.08-.16.12zm-9.12.36.04.04c.04-.04.12-.04.16-.08l-.08-.08zm9.68-.04c-.04-.04-.04-.08-.04-.08h-.2v.08h.24zm.8.64c0 .04.04.04.08.08 0-.08.04-.12.04-.16s0-.04-.04-.04c-.04.04-.08.08-.08.12zm-11.04.36c0 .04-.04.04-.04.08.04.04.08.08.16.08l.04-.04c-.04-.04-.12-.08-.16-.12zm6.72 18.88c-.04 0-.04.04-.08.08.04.04.12.08.16.12.04 0 .04-.04.04-.04-.04-.08-.08-.12-.12-.16zm3.96-18.28.04-.04c-.04-.04-.08-.08-.12-.08 0 0-.04 0-.04.04.04.04.08.04.12.08zm-.76.44.08.08c.04-.04.08-.12.16-.16-.04 0-.04-.04-.08-.04-.04.04-.12.08-.16.12zm-8.92 12.2c-.04 0-.04.04-.08.04.04.04.08.08.12.16l.08-.08zm-.92-9.72h.08v-.24h-.08v.24zm.76 10.48c0-.04-.04-.04-.04-.08l-.12.12c0 .04 0 .04.04.08zm9.4 2.72v-.04h-.16v.04h.16zM57.223 12v-.04c-.04 0-.12.04-.16.04l.04.04c.04 0 .08 0 .12-.04zm-5.64 13.76v-.04h-.12v.04h.12zm2.96-13.36v-.08h-.2c0 .04 0 .04.04.08h.16zm2.76.48h.04v-.16h-.04v.16zm3.4 13.44v.04c.04 0 .12-.04.16-.04 0 0 0-.04-.04-.04s-.08 0-.12.04zm-.8-12.4v-.08h-.12v.08h.12zm-7 22.4-.08-.08c0 .04-.04.08-.08.08h.16zm-.6.2h-.04v.16h.04v-.16zm-.84-8.96c0 .04-.04.08-.04.08 0 .04.04.04.04.08v-.16zm1.64 9.56v-.04c-.08 0-.12 0-.16.04v.04c.08 0 .12 0 .16-.04zm-2-8.08c-.08 0-.04 0 0 0-.04 0-.08-.04 0 0zm9.72 2.16v.08h.16v-.08h-.16zm-9.84-11.36v.04h.12v-.04h-.12zm10.08 14.8c.08 0 .04 0 0 0 .04.04.08.04 0 0zm-9.36-10.2v-.04c-.04.04-.08.04-.12.04v.04c.04 0 .08 0 .12-.04zm-.48.8v.08c.04 0 .08-.04.16-.04v-.04h-.16zm9.68 8.72h.08v-.16h-.04c-.04.08-.04.12-.04.16zm-8.96-10.44h-.04v.12h.04v-.12zm9.28-.28h-.04v.16h.04v-.16zm-10 10.12h-.04v.12h.04v-.12zm.36 2h-.04.04zm8.88.24h.04v-.04zm.36.24h.04v-.04zm-7.52 1.08.04-.04h-.04v.04zm-.24.44h.04-.04zm1.24 0-.04-.04v.04h.04zm1.96.04.04-.04h-.04v.04zm1.28 1v.04h.04zm-2.08.24h-.04l.04.04v-.04zm-1-26.08.04.04v-.04h-.04zm-.4.72h-.04v.04zm6 1.08-.04-.04v.04h.04zm-8.2.36-.04-.04h-.04c0 .04.04.04.04.04h.04zm7.92.2v.04l.04-.04h-.04zm1.04.4.04-.04h-.04v.04zm-.44.56-.04-.04zm-8.32.24-.04-.04v.04h.04zm-.48 1.4h-.04.04zm9.4.8-.04.04h.04v-.04zm-9.32 1.08h.04l-.04-.04v.04zm8.84 0v-.04l-.04.04h.04zm-.12.24-.04-.04v.04h.04zm.2 0h.04v-.04zm.64.48-.04-.04v.04h.04zm-9.56.24.04-.04h-.04v.04zm8.84.32v.04-.04zm-8.8.2-.04.04h.04v-.04zm10.2.2v-.04h-.04zm-1.28.28-.04.04h.04v-.04zm1.4.2v-.04h-.04zm-.12.44v-.04h-.04zm-1.28.32h-.04v.04zm-9.96.12h-.08c.04 0 .04.04.04.04s.04 0 .04-.04zm.08 1.84v.04-.04zm.6.36-.04.04h.08s-.04 0-.04-.04zm-.48.24v.04-.04zm9.64.64-.04-.04zm.2.2.04.04v-.04h-.04zm-9 1.2v-.04c-.04 0-.04 0-.04.04v.04zm-.24 1.88v-.04l-.04.04h.04zm-.56.92s0-.04-.04-.04c0 0 0 .04-.04.04l.04.04s.04 0 .04-.04zm10.28.92v.04l.04-.04h-.04zm-.56.64-.04-.04v.04h.04zm-.12.2v-.04c-.04 0-.04.04-.04.04v.04c.04 0 .04-.04.04-.04zm-9.88.16.04-.04h-.04v.04zm1.52.16v.04h.04zm-1.28 1.72.04-.04h-.04v.04zm.2.2.04.04v-.04h-.04zm9.56.16v-.04h-.04zm.8.28v.04-.04zm.32-12.6c-.04.04-.08.04-.08.08 0 0 .04.04.08.04v-.12zm-9.88 14.8h-.12v.12h.12v-.12zm33.461-25.44c-.08.2-.12.4-.2.52-.36.52-.4 1.08-.44 1.64-.04 1.8-.08 3.56-.12 5.36-.04.8 0 1.6 0 2.4-.04 2.72-.08 5.4-.16 8.12-.04.88.08 1.72 0 2.6-.04.8.04 1.56.04 2.32 0 .8-.04 1.6 0 2.36.04.84.16 1.68.24 2.48 0 .2.04.36.12.52.16.28.12.52-.16.76h-1.2c-.56 0-1.16 0-1.76.08-.4.08-.84-.04-1.32-.08.2-.72.24-1.44.24-2.16.04-1.36.12-2.72.16-4.08.04-3.32.04-6.64.04-9.96 0-1.24-.08-2.48-.12-3.68 0-.16-.04-.28-.08-.52-.52.72-1.04 1.32-1.4 1.96-.96 1.6-1.84 3.28-2.76 4.92-.12.24-.28.48-.4.72h-.56c-.04-.04-.08-.08-.12-.08-.2-.28-.44-.56-.64-.84-.32-.52-.64-1.08-.96-1.6-.36-.6-.76-1.2-1.16-1.8-.44-.72-.92-1.4-1.4-2.12-.12-.04-.28-.08-.44-.16-.04.08-.12.16-.16.2-.04.56-.2 1.12-.04 1.68.08.28 0 .6.04.88 0 .72.08 1.4.08 2.08 0 .72-.08 1.44-.08 2.16v8.76c0 .52.04 1.04.16 1.56.04.12.08.28.04.4-.08.48.04.84.4 1.2-.12.16-.2.28-.28.4-.08.04-.12.08-.16.04-.2-.04-.4-.12-.6-.04-.12.04-.2 0-.32 0-.24 0-.52-.08-.8-.04-.52.04-1.08.16-1.6.2-.2.04-.4 0-.64 0 0-.16-.04-.28-.04-.4.36-1.24.44-2.56.44-3.88 0-1.64.04-3.28-.04-4.92-.08-1.72 0-3.48-.12-5.2-.16-2.52-.04-5-.04-7.52-.04-.96.04-1.88.08-2.84.04-1-.28-1.92-.56-2.88-.04-.24-.28-.48-.48-.8v-.44c.12-.12.28-.2.4-.28h3.56c.12.16.24.32.32.52.88 1.8 1.72 3.6 2.6 5.36.28.6.52 1.2.8 1.76.16.28.32.48.52.72.2.28.44.56.64.84.16.28.4.48.72.56.44-.12.76-.48.96-.84.56-.96 1.08-1.92 1.6-2.88.68-1.32 1.36-2.68 2.04-4 .28-.52.6-1 .84-1.52.2-.4.44-.56.88-.56h2.76c.2 0 .4 0 .64.04zm-3.56 20.4c-.04-.04-.04-.04-.08-.04.04 0 .04 0 .04.04.04 0 .04.04.08.04zm-12.32-3.2c-.04 0-.08 0-.12-.04.04.04.08.04.08.08.04 0 .08 0 .08.04 0-.04-.04-.04-.04-.08zm13.48-2.44c0 .04.04.04.04.08l.04-.04c-.04 0-.04-.04-.08-.04s-.04-.04-.08-.04c.04 0 .04 0 .08.04zm-6.8-1.08c0 .04.04.08 0 .04.04 0 0 0 0 0v-.16l.04-.04s-.04.04-.04.08c-.04 0-.04.04-.08.04.04 0 .04.04.08.04zm-8.24-11.84c0-.04-.04-.04-.04-.04l.04.04.04.04s0-.04-.04-.04zm-.12-.48h.12c.04.04.08.04.08.04h-.08c0-.04-.04-.08-.04-.12 0 .04-.04.08-.04.08-.04.04-.08.04-.08.08 0-.04.04-.04.04-.08zm1.2 25c-.04.04-.04.08 0 .04-.08 0-.04 0 0 0 0-.04.04-.08.04-.12 0 .04-.04.08-.04.08zm-.72-2.8c.04 0 .04-.04.04-.04s-.04 0-.04.04c-.04 0-.04.04-.04.04s.04 0 .04-.04zm8-10.8c-.04 0-.04-.04-.04 0 0-.04 0 0 .04 0 0 .08 0 .12.04.2 0-.04.04-.04.08-.04-.04-.04-.08-.12-.12-.16zm-7.64-5.28c-.04 0-.04-.04-.04-.04s.04 0 .04.04 0 .12.04.2c0-.04.04-.04.08-.04-.04-.04-.08-.12-.12-.16zm13.6-4.6c.16 0 .16-.08 0-.2v.24s-.04.04-.04.08c0-.04.04-.08.04-.12zm-4.2 7.16c0 .04.04.08 0 .04h-.04c-.08-.2-.28-.12-.44-.12l-.08-.08c.04.04.04.04.08.04V21s-.04.04-.08.04c.04 0 .04.04.08.04v.24c.12.04.2.04.32.08 0-.04 0-.08.04-.12-.12-.04-.24-.12-.36-.16v-.16h.48zm-9.4-5.6c.04 0 .04 0 .08.04-.04 0-.04-.04-.08-.04.04-.08.08-.12.12-.2-.08-.08-.12-.12-.2-.16-.04.16-.16.28.08.36zm-.12-.72c-.04 0-.04-.04-.08-.04.04 0 .04 0 .08.04.04.08.08.16.12.32.04-.16.08-.2.12-.28-.12 0-.16-.04-.24-.04zm.68 19.28v-.04h.04c0 .08.04.16.08.32.08-.12.08-.16.12-.24-.08-.04-.16-.04-.24-.04zm-.8-8.36c-.04.08-.08.12-.16.28.2-.08.28-.08.44-.16-.08-.04-.12-.08-.16-.12s-.04-.04-.04-.08zm.24-5.04c.08-.04.16-.08.32-.12-.12-.12-.2-.16-.36-.36.04.28.04.36.04.48-.04 0-.04.04-.04.04s0-.04.04-.04zm2.36-2.6c-.08-.04-.16-.04-.24-.12-.04.12-.08.24-.16.36.16 0 .28 0 .4-.04v-.2c0-.04 0-.04.04-.08 0 .04-.04.08-.04.08zm-2.24-3.84c-.12-.04-.2-.08-.32-.08-.04.12-.08.28-.12.52.2-.2.32-.36.44-.48 0-.04.04-.12.08-.16 0 0-.04 0-.08-.04v.24zm5.4 7.84.36-.12c.04.08.08.12.16.24.08-.16.12-.28.12-.4.04 0 0 0 0 0-.12.04-.2.12-.32.16.04-.08.08-.2-.08-.24-.04 0-.04-.04-.08-.08 0 .04-.04.08-.04.08-.08.04-.16.12-.24.16.08.08.08.16.12.2l-.12.12c-.08-.08-.12-.2-.2-.32-.2.24.04.44.04.64.04-.12.08-.2.16-.32zm8.56 15.16c.04 0 .12.04.16.08 0 0 0-.04.04-.04-.08-.04-.12-.04-.2-.04.08-.12.16-.28.28-.48-.28.04-.48.12-.52.36 0 0-.04.04-.04.08 0-.04.04-.08.04-.08zm-14.2-21.04.24.24h-.16c-.04.2-.04.36-.08.52.2-.04.32-.12.48-.16.04.12.12.2.2.32 0 .04.04 0 .12 0-.08-.12-.12-.2-.16-.32h-.16c-.04-.16-.32-.12-.24-.36l.24-.12v.2h.68c.04-.2.04-.36.08-.6-.12.08-.24.12-.32.16-.04-.08-.08-.16-.12-.2-.12.2-.24.32-.32.44-.04-.04-.04-.12-.04-.2-.16-.04-.28-.08-.44-.12v.2l-.04.04zm.6 3.76c0 .16-.08.36.2.52-.04-.2-.04-.32-.04-.48-.08 0-.12 0-.2-.04 0-.04.04-.08.04-.12.04 0 .12 0 .16-.04 0 0 0-.04-.04-.04s-.08.04-.12.08c-.08-.08-.12-.2-.24-.4-.16.24-.2.36-.28.52h.52zm3.04.24c.04 0 .04.04.04.04s-.04 0-.04-.04c.08-.2.2 0 .32 0 .04 0 .08-.04.16-.08-.08-.08-.12-.16-.16-.2v-.24h-.28c-.04.08-.04.12-.04.16-.08 0-.12.04-.24.04.08.12.16.24.24.32zm10.08 13.52c-.04.12-.12.28-.16.44h.44c-.08-.2-.12-.32-.16-.48.16-.12.28-.24.44-.4-.04-.12-.08-.16-.12-.28-.2.16-.36.32-.56.48.04.04.04.12.04.16.04.04.08.04.08.08zm-13.48 2.32-.12-.12-.36.24c0 .04.04.04.04.08.16-.08.28-.12.44-.2.08.16.24.2.4.2.12-.2.2-.36.32-.56-.04-.08-.12-.16-.24-.32-.08.28-.08.4-.12.56-.08.04-.24.08-.36.12zm.24-2.72h.2c.04-.12.04-.24.04-.36.04-.12.08-.2.08-.32.04 0 .04-.04.08-.04l-.04.04c-.08-.12-.16-.24-.28-.48 0 .24 0 .36-.04.48s-.16.2-.2.32c.04.12.12.28.16.4-.04 0-.08.04-.04 0 0 .04 0 0 .04-.04zm2.92-14.04c-.04-.04-.04-.04-.04-.08 0 .04.04.04.04.04.08.08.12.16.2.24.12-.16.24-.28.36-.44-.08-.16-.24-.32-.36-.48-.16.12-.2.24-.12.36s.08.28-.08.36zm9.28-3.76c-.04 0-.08.04-.08.04l.08.08c.08.16.2.12.36.04l-.12-.36h.2v-.28c.08 0 .16.04.2.08 0-.2 0-.2-.16-.08-.08-.08-.16-.2-.24-.28-.04 0-.08 0-.16-.04-.04.12-.12.28-.16.4.12.12.2.24.08.4zm.36 2v-.04c-.12-.2-.28-.16-.44-.08-.08.2-.12.4-.16.56l.12.24c-.04.12-.04.24-.08.36.12-.04.2-.04.28-.04.04-.16.08-.28.12-.4-.08-.04-.12-.08-.16-.12.2-.04.36-.04.6-.08-.12-.16-.2-.28-.28-.4zm1.52 4.04c-.04.04-.08.04-.12.08-.08-.2-.16-.4-.2-.6-.16.12-.24.16-.32.24-.04.04-.04.08-.04.16.12.04.24.04.32.08s.16.12.2.2zm-9.64 0c.24-.16.36-.32.2-.56-.16.08-.32.2-.44.28.08.08.16.16.24.28zm3.8.68c.24-.12.4-.24.44-.44 0-.04-.04-.12-.04-.16-.12.04-.24.08-.32.12-.04.16-.04.28-.08.48zm-8.4 4.04c-.24.2-.24.36-.12.6h.28c-.04-.24-.12-.4-.16-.6zm.96-7.24c-.12.28-.16.44.08.56.08-.12.2-.24.32-.4-.12 0-.16.04-.2.04-.08-.04-.12-.12-.2-.2zm12.84 7.56c-.08-.28-.08-.28-.6-.24v.24c.08-.04.12-.08.16-.12.16.04.32.08.44.12zm-.04-8.92c.28.04.4.04.6.04-.12-.16-.2-.28-.28-.4-.08.12-.16.16-.32.36zM68.884 14c.2.04.28.04.4.08.04-.16.04-.24.04-.32.04-.08.08-.16.08-.24 0 0-.04 0-.04-.04-.16.16-.28.28-.48.52zm.16 15.68c-.08.16-.16.28-.24.44.44-.16.52-.24.44-.4-.08-.04-.12-.04-.2-.04zm8.12-8.4c-.2.12-.32.16-.4.2v.28h.16c.08-.16.16-.28.24-.48zm-8.56 9.88c.2-.12.28-.2.4-.28-.12-.08-.16-.16-.28-.32-.04.24-.08.36-.12.6zm14.52-12.2c-.16.08-.28.16-.4.2v.12c.12 0 .24.04.36.04.04-.12.04-.2.04-.36zm-14.68 6.44c.28-.16.36-.32.36-.56-.2.12-.28.28-.36.56zm.36-12.76h.08c.08-.12.12-.2.16-.32h-.32c.04.16.04.24.08.32zm10 6.68c-.28-.08-.36.04-.24.32.08-.16.16-.24.24-.32zm-8.36-3.72v-.4c-.16.08-.2.12-.32.2.12.08.2.12.32.2zm9 2.6c.24.2.24.2.44 0h-.44zm-10.68 16.84c.28.2.36.08.4-.08 0-.04 0-.08-.04-.16-.08.08-.2.16-.36.24zm.04-10.24c.2-.16.28-.2.4-.28-.08-.12-.12-.2-.2-.28-.08.16-.12.32-.2.56zm13.52 13.24c.08.2.12.36.16.52.08-.2.2-.4-.16-.52zm-.76-22.32c-.2.12-.24.24 0 .32v-.32zm.72 6.92c0 .04 0 .04-.04.08.08.08.2.16.28.24.04-.08.08-.08.16-.16-.16-.08-.28-.12-.4-.16zm-11.2-3.52c-.12-.04-.24-.08-.44-.16.12.2.2.28.24.4.08-.08.12-.12.2-.24zm-2.2 3.8v.12h.36V23c-.12-.04-.24-.08-.36-.08zm13.92 12.68c.12-.32.12-.32-.12-.4.04.12.08.24.12.4zm-11.92-18.2c.04 0 .08.04.08.04.08-.08.24-.12.12-.4-.08.16-.16.24-.2.36zm12 15.32v-.12c-.08 0-.16-.04-.28-.08v.12c.08.04.16.04.28.08zm-14.16-10.8-.08-.08-.32.16c.12.04.16.08.24.12.08-.08.12-.16.16-.2zm-.16-9.12h-.4c.12.2.2.24.4 0zm0 10.56c.04.28.04.28.28.24-.12-.08-.2-.16-.28-.24zm.48 5.88c0 .08-.2.28.12.24zm14.08-16.72c-.04-.04-.08-.08-.08-.12-.08.08-.16.12-.2.16 0 .04.04.08.04.08zm-6.56 11.08h-.08v.36h.08v-.36zm-7.92 13.28c.08-.12.12-.16.2-.28-.16 0-.24.04-.36.04.08.08.12.12.16.24zm.64-21.68v-.08c-.04-.04-.12-.08-.16-.08 0 .04-.04.08-.04.12.08 0 .12.04.2.04zm-.72 19.16c.04-.08.08-.12.12-.2h-.32zm-.4-14.16c.12.16.2.2.28 0h-.28zm6.4 2.48-.04-.04c-.04 0-.12.04-.16.08 0 0 .04.04.04.08.04-.04.12-.08.16-.12zm1.68.76c0-.04.04-.04.08-.08-.08-.04-.12-.08-.16-.12 0 0-.04 0-.04.04.04.04.08.08.12.16zm-.08.8c.04-.04.04-.08.08-.08-.08-.04-.12-.08-.16-.08s-.04 0-.04.04zm-7.88 3.16c.04 0 .08 0 .08-.04-.04-.04-.04-.08-.08-.12 0-.04-.08 0-.08 0 .04.08.04.12.08.16zm.84.96c-.2.04-.36 0-.2.2zm13.72-12.2c0-.04.04-.04.04-.08l-.12-.12c-.04.04-.04.04-.04.08zm-1.84.8c.24.08.28 0 .28-.24-.12.08-.16.16-.28.24zm-11.56.12v.2c.04.04.12.04.28.04-.12-.12-.2-.16-.28-.24zm-1.04 1.68c0-.04.04-.08.08-.08-.08-.04-.12-.08-.16-.12 0 .04-.04.04-.04.08zm13.92 3.4s.04-.04.08-.04c-.04-.08-.08-.12-.12-.2-.04 0-.04.04-.08.04.04.08.08.16.12.2zm-13.76 3.8h-.04v.16h.04v-.16zm13.48 0v-.04c-.04 0-.08.04-.12.04V26c.04 0 .08 0 .12-.04zm-13.72.32c-.04.04-.04.04-.04.08 0 0 0 .04.04.08v-.16zm.96.04h-.04v.16h.04v-.16zm13.48.36v-.04c-.08 0-.12.04-.16.04l.04.04c.04 0 .08-.04.12-.04zm-13.96-13.16h-.04v.16l.04-.04v-.12zm.68 22.92v-.16.16zM68.404 27v.04h.16V27h-.16zm14.24-12.56v.04h.12v-.04h-.12zm-12.96.28h.04v-.12h-.04v.12zm13.44 13.92c-.04 0-.08 0-.08.04s.04.08.04.12h.04v-.16zm-3.24-12.08v.04c.04 0 .08.04.12.04 0 0 .04-.04.04-.08h-.16zm-8.48.12h-.08c0 .04 0 .08.04.16.04-.08.04-.12.04-.16zm11 20.56h-.12.12zm-11.88-20.32h.04c0-.04 0-.08-.04-.12v.12zm-.4.88c-.04-.04-.08-.08-.08-.12l-.08.08c.04 0 .08.04.16.04zm13.4.4c.04-.12.08-.16.08-.16 0-.04-.04-.04-.04-.08 0 .08 0 .12-.04.24zm-15.12 12.88c.04-.04.04-.08.08-.12-.04 0-.04-.04-.08-.08v.2zm14 .32c-.04-.04-.08-.04-.08-.04h-.04c.04 0 .08.04.12.04zm-13.4 6.52s-.04.04-.04.08c.08 0 .12-.04.16-.04s.04-.04.04-.04h-.16zm6.24-13c-.04-.08-.04-.04 0 0 0-.04.04-.08 0 0zm.48-.36s0-.04-.04-.04h-.12v.08c.04 0 .12 0 .16-.04zm7.56-.2-.08-.08c-.04 0-.08.04-.12.08h.2zm-8.6-.56c-.04.08-.08.08-.08.08 0 .04.04.08.04.12 0-.04.04-.12.04-.2zm8.24-.08c.04.04.08.04.08.04h.12c-.08-.04-.12-.04-.2-.04zm-7.92-.68c-.04-.08-.04-.04 0 0zm1.4-.56v-.04h-.12v.04h.12zm-3.04-.64v.08c.04-.04.08-.04.12-.04v-.04h-.12zm8.32 12.72.04-.04h-.04v.04zm-13.4 1.76h.04v-.04zm1.32.32v.04-.04zm12.32.68-.04.04h.04v-.04zm.56.12v.04s0 .04.04.04v-.08h-.04zm-13.84.4.04-.04h-.04v.04zm-.44-24.32s0-.04-.04-.04v.04l.04.04v-.04zm1.52.08c0 .04-.04.04-.04.04h.08s-.04 0-.04-.04zm.24.04h-.04v.04c.04 0 .04-.04.04-.04zm-.04.24h.04v-.04zm11.88.6h.04-.04zm-1.08.12h.04v-.04zm-11.68.2h-.04v.04zm12.76.4v-.04.04zm-11.12.32-.04-.04v.04h.04zm9.6.16v-.04h-.04zm-10.08.04-.04.04h.04v-.04zm10.12.16-.04-.04v.04h.04zm2.88.48h.04v-.04zm-11.92.08h-.04s-.04 0-.04.04h.08v-.04zm-.16.36v.04-.04zm8.72 1.2h-.08c.04 0 .04 0 .04.04 0-.04.04-.04.04-.04zm3.28.24-.04-.04v.04h.04zm-.44.08h-.08c0 .04 0 .04.04.04zm-11.44 1.2v-.04.04zm-3.04.08-.04.04h.04v-.04zm14.44.04-.04-.04zm-.48.36v-.04.04zm.36.2v.04-.04zm-4.48.4.04-.04h-.04v.04zm-9.84.08v-.04l-.04.04s0 .04.04.04v-.04zm5.2.12-.04-.04-.04.04.04.04s0-.04.04-.04zm-5.08.12v-.04c-.04 0-.04.04-.04.04v.04c.04 0 .04-.04.04-.04zm5.28 1.16h-.04.04zm1.28.04v-.04.04zm.92-.04v.04l.04-.04h-.04zm.36.12v.04h.04zm-.84 1.08.04-.04h-.04v.04zm8 .24.04-.04h-.04v.04zm-14.92.44.04.04v-.04h-.04zm.36.16s.04 0 .04-.04c0 0-.04 0-.04-.04 0 .04-.04.04-.04.04zm14 .72v-.08c-.04 0-.04.04-.04.04s0 .04.04.04zm-14 .68.04-.04h-.04v.04zm-.44.4-.04.04h.04v-.04zm.44 1.12h.04c0-.04 0-.04-.04-.04v.04zm13.52.36v-.04h-.04zm-13.12.08h-.04v.04zm-.28.4c.04 0 .04 0 .04-.04l-.04-.04v.08zm.04 1.04h-.04.04zm-.36.44h-.04v.04zm14.52.68v.04h.04zm-.8.36-.04.04h.04v-.04zm-12.88.28-.04-.04v.04h.04zm-.12.68h-.04v.04zm12.8.24-.04-.04v.04h.04zm.16 0 .04.04v-.04h-.04zm.2.2h-.04c-.04 0-.04.04-.04.04h.04zm.4.4h.04v-.04zm-13.44.6c0-.04-.04-.04-.04-.04s-.04 0-.04.04c0 0 0 .04.04.04 0 0 0-.04.04-.04zm-1.08.32h-.04l.04.04v-.04zm1.08 0-.04-.04-.04.04c0 .04.04.04.04.04s.04 0 .04-.04zm13.72.48h-.04.04zm-1.72-16.12c.04-.04.08-.12.12-.16v.04c-.04.04-.08.04-.12.08v.04zm-.12.12v-.04l.12-.12v.04zm0-.04v.04s-.04 0-.04.04c0-.04 0-.04.04-.08zm-.12-2.08v-.16c0 .04.04.08.08.08-.04.04-.08.04-.08.08zm1.2 18.08c-.04-.04-.08-.08-.08-.12-.04.04-.04.08-.08.12h.16zm-10.24-13.88.04.04s-.04 0-.04-.04zm2.12 1.88h.12c-.04.04-.04.08-.08.08 0-.04-.04-.04-.04-.08zm-5.88 4h.12c0 .04-.04.04-.04.08-.04-.04-.08-.04-.08-.08zm24.341 6.12c-.16.96-.04 1.8-.04 2.68s-.04 1.72 0 2.6c.04.48.16 1 .28 1.48.08.4.16.84.4 1.2.04.08 0 .16 0 .28-.56.04-1.12 0-1.68.04-.56 0-1.08 0-1.64-.04-.56 0-1.12.08-1.68-.04-.08-.32 0-.52.08-.76.48-1.08.6-2.24.6-3.4V18.48l-.12-4.56c0-.16 0-.28-.04-.44-.24-.72-.24-1.56-.64-2.28v-.16c.12-.24.32-.2.52-.2h4.16c1 0 2-.04 3 0 .72.04 1.44.16 2.12.4 1.28.48 2.12 1.4 2.6 2.68.4 1.08.64 2.16.76 3.32.08.84.08 1.64.08 2.48 0 .96-.08 1.88-.2 2.84-.12.76-.24 1.52-.4 2.28-.16 1.16-.72 2.16-1.48 3-.6.76-1.28 1.44-2.2 1.8-.24.08-.52.2-.76.24-.76.2-1.44.48-2.12.8-.32.12-.6.24-.88.36-.32.16-.6.36-.72.64zm-1.08-13.56c-.04 0-.04.04-.08.04.04 0 .04-.04.04-.04.04-.04.08-.04.12-.08-.04 0-.08-.04-.12-.04l-.12-.12c-.04.04-.04.08-.04.08.08 0 .12 0 .2.04v.12zm-.36.6c0-.04.04-.08.04-.08l.08.08h.04c0 .04-.04 0-.04-.04h-.12c-.04.04-.04.08-.04.08zm8 .12v-.04h-.04c0 .04-.04.04-.04.08.04 0 .04-.04.08-.04zm-8 1.76c-.04.04-.08.08-.12.08-.28-.12 0-.4-.2-.56-.04 0-.08 0-.16-.04.12-.08.2-.2.32-.32-.28-.04-.52-.04-.68.28.16.04.24.04.36.08-.04.24 0 .48.24.68l.12-.12h.12v.36c-.08 0-.12.04-.2.04v.04c.08 0 .12.04.2.04 0 .04.04.04.04.08 0-.04.04-.04.08-.08.16-.28.16-.4 0-.56-.04-.04-.04-.08-.08-.08 0 0-.04.04-.04.08zm-.84 14.04c0 .04-.04.08-.04.08s.04-.04.08-.04v-.04h-.04zm-.2-21.48c-.04 0-.08 0-.12-.04.04.04.08.04.08.08h.08c0 .04-.04.08-.08.08-.04.04-.08.08-.16.12v-.08h.2v-.16zm5.6 15.4s-.04-.04-.08-.04c.04 0 .08.04.12.04.04.04.08.08.16.08v-.08h-.2zm4.24-10.56c.04 0 .12.04.2.04-.04-.16-.04-.16-.2-.04-.04 0-.04.04-.04 0 0 .04 0 0 .04 0zm-7.28-4.72c.04.04.04.04.04.08 0-.04-.04-.04-.04-.04 0-.08.04-.16.04-.24-.12.08-.2.12-.04.2zm6.44 12.8c.16-.08.12-.16-.08-.24.04.12.08.2.12.28h-.04v-.04zm-9.04 9.4c.08 0 .12-.04.24-.04l-.2-.2v.24c-.04.04-.04.04-.08.04.04 0 .04-.04.04-.04zm.04-19.48c.12.12.12.12.16-.08-.04.04-.12.08-.2.08-.04-.04-.08-.12-.2-.28 0 .2.04.28.04.36.08-.04.12-.08.2-.08zm9 3.76s-.04-.04-.04-.08c0 .04.04.04.08.08-.04.12-.16.24.04.32l.16-.16c-.08-.08-.16-.12-.24-.16zm-8.92-.6c.28-.12.08-.28-.04-.44.04.16.04.32.08.44-.04.04-.08.04-.04.04-.04.04 0 0 0-.04zm.48-2.2c-.04-.08-.04-.16-.12-.32-.04.12-.08.16-.08.24.08.04.16.04.2.04 0 .08-.04.12-.12.28.16-.08.32.16.44-.12-.12-.04-.2-.08-.32-.12zm6.92 9.48c.12 0 .24 0 .2-.2h-.36c.08.08.12.16.2.2-.08.04-.16.04-.24.04 0 0 .04.04.04.08.04-.04.12-.08.16-.12zm1.88-8.56c-.12-.04-.24-.04-.36-.08v.44c.12-.16.24-.24.36-.36l.04-.04s0 .04-.04.04zm-.68 7.4c.04.04.12.08.16.08l.04-.04c-.08-.04-.16-.04-.2-.04.04-.12.12-.2.2-.32-.08-.08-.16-.12-.24-.2-.08.16-.16.24-.28.44.16.04.24.04.32.08zm-7.88-12.8c0 .08.04.12.04.24.24-.16.24-.36.16-.6-.04-.04-.12-.04-.16-.08-.08.12-.16.24-.28.36.12.04.16.08.24.08zm8.68 9.96c.04.04.04.08.04.04h-.04l.12-.48c-.12 0-.28-.32-.44 0-.04 0-.08.04-.08.04 0 .04.04.04.08.04 0 .12.04.24.08.36h.24zm-7.4 6c.36.2.36.2.68-.2-.76-.08-1.2-.04-1.36.28.08.04.12.04.2.08-.04.08-.08.16-.08.28.12.12.28.2.52.4 0-.48.36-.44.72-.56-.36-.04-.56-.08-.84-.08.08-.12.12-.16.16-.2zm.36-2.32c.28.44.68.56 1.16.56.8.04 1.56-.2 2.24-.6.24-.16.52-.32.72-.56.48-.64.84-1.36.96-2.16.08-.48.16-.92.2-1.4.08-.52.16-1.04.08-1.56-.08-.72-.08-1.44-.04-2.16.04-.84-.12-1.64-.32-2.44-.24-.88-.88-1.4-1.8-1.48-.68-.04-1.36-.12-2.04-.2-.52-.04-.92.08-1.28.44 0 .16.04.32.04.48.08.6.16 1.2.16 1.8 0 .68-.04 1.4-.08 2.12-.08.92.08 1.84.04 2.76-.12 1.48-.04 2.96-.04 4.4zm7.04-9.36c-.04-.04-.08-.04-.12-.04-.04.12-.08.28-.12.4-.12.08-.2.16-.32.28.2.08.32.16.48.24.16-.32.04-.6.08-.88zm-8.32 11.96c.04-.04.08-.08.12-.08-.04-.12-.08-.24-.08-.36-.04-.08 0-.2.04-.36-.24.08-.4.16-.56.24.04.36.4.28.48.56zm.24-1.04c-.12-.28-.28-.48-.56-.6-.2.36.2.44.24.64.12 0 .2 0 .32-.04zm-1.24-9.96c.04.04.08.12.08.2.16-.16.28-.32.4-.48-.24-.04-.44-.12-.64.04v.44c.08-.12.12-.16.16-.2zm4.4-5.24c-.12.04-.24.04-.4.08.24.2.4.36.56.48.04 0 .04 0 .08-.04-.08-.16-.16-.32-.24-.52zm-3.8 8.88c-.28.28-.28.32 0 .64v-.64zm-.72 2.68c0 .04.04.08.04.08l.48-.32c-.24 0-.36-.04-.44-.04-.04.12-.08.2-.08.28zm.44 5.08c.12-.04.2-.08.36-.16l-.32-.32c0 .2-.04.32-.04.48zm-.2-4.4c.16.24.28.28.4.16.04-.04.04-.12.08-.16h-.48zm5.2 3.64c-.2-.16-.32-.2-.4-.28v.36c.12 0 .2-.04.4-.08zm-3.12-15.48c.32.12.44-.04.6-.2-.16.08-.32.12-.6.2zm6.68 1.8c-.24.16-.28.28-.16.56.08-.24.12-.36.16-.56zm-8.56 3.6c-.08 0-.16-.04-.24 0-.04 0-.08.08-.16.16.12.04.24.08.32.12.04-.12.04-.2.08-.28zm.52 13.72s-.04.04-.08.04v.16c.04.08.12.2.16.28.04 0 .04 0 .08-.04-.04-.12-.08-.28-.16-.44zm4.24-19.12c0-.28-.08-.4-.36-.4.12.16.2.24.36.4zm-4.68 1.88c.08.04.12.12.2.16.04-.12.08-.2.12-.28-.04-.04-.08-.04-.08-.08-.08.08-.16.12-.24.2zm8.52.8c.04.12.08.2.16.4.04-.2.08-.28.12-.4h-.28zm-.16.2c-.16.12-.32.16-.16.4.08-.16.12-.24.16-.4zm.44 7.48c.2.2.2.2.32 0h-.32zm-3.8 5.16c.16-.32.16-.32-.04-.44.04.12.04.24.04.44zm-4.76 8.4c-.12-.24-.2-.24-.36-.04.12.04.24.04.36.04zm1.96-7.4h-.08c0 .08-.04.12-.04.2h.12v-.2zm6.4-8.48s.04 0 .08-.04c-.04-.04-.04-.08-.04-.16-.04 0-.12.04-.16.04.04.08.08.12.12.16zm.2 2.96c.04.04.08.04.12.08l.12-.24c-.04-.04-.04-.04-.08-.04-.04.04-.08.12-.16.2zm-1 2.76c0-.04.04-.04.04-.08-.04-.04-.08-.04-.16-.08v.04zm-1.24 0-.04-.04c-.04.04-.08.08-.12.16 0 0 .04 0 .04.04.04-.04.08-.12.12-.16zm-2 2.08-.08.08c.04.04.08.08.16.08l.04-.04zm-4.56-6.48c.04.04.04.04.08.04l.12-.12c-.04-.04-.04-.04-.08-.04zm-.12-.68c-.08 0-.12-.04-.12 0-.04.04-.04.08-.08.16.08-.04.12-.08.2-.16zm9.32-.52.08-.08c0-.04-.04-.12-.04-.12-.04-.04-.12 0-.24 0zm-2.88 6.68c.04-.16.04-.28-.16-.12.04.04.08.08.16.12zm2.88-7.24c.04.04.04.04.04.08.04 0 .12 0 .2-.04v-.04h-.24zm-8.68-4.04v-.04h-.24v.08c.08-.04.16-.04.24-.04zm7.64-.84s.04 0 .04-.04c-.04-.04-.08-.08-.12-.16 0 .04-.04.04-.04.08zm-1.84-3.08-.04-.04c0 .04-.04.08-.04.16h.08v-.12zm-6.4.48c.08-.04.04 0 0 0 .04 0 .08.04 0 0zm9 11.76-.04-.04h-.12v.08c.04-.04.08-.04.16-.04zm-8.52.68h.04v-.12h-.04v.12zm7.2.16c0-.04-.04-.08-.04-.08-.04 0-.08.04-.08.08h.12zm.48.2h-.04v.12h.04v-.12zm-.64 0h-.08.08zm-7.36-2.24h-.04v.16h.04v-.16zm.36 13.28h-.08c.04.04.04.08.04.16.04 0 .04-.04.08-.04 0-.04-.04-.08-.04-.12zm.2-7.76v.04h.12v-.04h-.12zm-.48-5.76v.08c.08-.04.12-.04.16-.04v-.08c-.04 0-.12 0-.16.04zm7.68 2.32-.04.04v.12h.04v-.16zm-8.36-6.2c.04.04.04.04.08.04l.04-.04h-.12zm3.12-6.92c.04 0 .04 0 .04.04v-.16c0 .04 0 .08-.04.12zm5.68 12h.04v-.16h-.08c0 .08.04.12.04.16zm-8.52 3.36c-.04.04-.08.04-.12.08.04 0 .08.04.08.08 0-.04.04-.12.04-.16zm2.48.08c-.04-.04-.04-.08-.04-.08h-.16v.08h.2zm-1.56-10.36v-.04c-.04 0-.12 0-.16-.04v.08h.16zm8.76 4.8h.12-.12zm-1.16 0h.12-.12zm-8.52-5.32h-.12c0 .08.04.16.04.2h.08v-.2zm.2 14.68h-.04v.16c.04 0 .04 0 .04-.04v-.12zm.36-16.56h-.04v.16h.04v-.16zm.08-.36c.16.04.2.08.24.08 0 0 0-.04.04-.04-.04 0-.12 0-.28-.04zm2.04-2.56-.04-.04v.04c0 .04 0 .04.04.04v-.04zm3.28.36h-.04v.04zm-4.6.16.04-.04h-.04v.04zm2.12-.04h-.04l.04.04v-.04zm4.2 1.08h.04v-.04h-.04v.04zm.96.32v.04h.04c0-.04-.04-.04-.04-.04zm-8.8 15.04h-.04l.04.04v-.04zm2.2 0 .04.04v-.04h-.04zm-1.8.24c-.04 0-.04 0-.04-.04 0 .04-.04.04-.04.04s0 .04.04.04c0 0 0-.04.04-.04zm.04 4.24h.04v-.04zm.04.72v-.04h-.04zm7.48-9.12v.08c.04 0 .04 0 .04-.04zm-7.8 9.68c-.04 0-.04-.04-.04-.04s-.04 0-.04.04c0 0 .04 0 .04.04 0 0 0-.04.04-.04zm.44.24v-.04c0 .04 0 .04-.04.08.04 0 .04-.04.04-.04zm7.8-10.68h.04v-.04zm-8.76 13.96zm5.88-25.8v-.04.04zm3.08 9.96-.04-.04v.04h.04zm-7.08 4.6s.04 0 .04-.04l-.04-.04-.04.04zm-1.76.12.04-.04-.04-.04-.04.04zm7.64-.08v.08l.04-.04s-.04 0-.04-.04zm1.64-6.16v-.04.04zm-3.96 6.44-.04-.04-.04.04.04.04zm4.68-8.36-.04.04h.04v-.04zm-.4-.4c.04 0 .04-.04.04-.04v-.04c-.04 0-.04.04-.04.04v.04zm-9.44 7.48-.04-.04v.08c0-.04.04-.04.04-.04zm9.84-7.88h-.04v.04zm-6.92 9.52s0-.04-.04-.04v.08c.04 0 .04-.04.04-.04zm-2.24-10.12-.04.04h.04v-.04zm-1.08-1.16h.04-.04zm9.56-.48h-.08c0 .04 0 .04.04.04zm.52-.36v.04h.04c0-.04 0-.04-.04-.04zm-8.44-.12v.04h.04zm4 12.4c0-.04.04-.04.04-.04s0-.04-.04-.04c0 0 0 .04-.04.04.04 0 .04.04.04.04zm4-13.08h-.04.04zm-7.24 13.44c.04 0 .08-.04.04 0 0-.04 0-.04-.04 0zm7.04-6.32.08-.08-.08-.08v.16zm-8.32-9.64c0-.04.04-.04.04-.04zm.36 8.68-.12-.12v.12h.12zm-.12-.6v.12l.12-.12h-.12zm24.181 19.2c-.08.04-.16.16-.24.2-.2.04-.4.08-.64.08h-4.32c-.24-.36-.2-.76-.04-1.16.36-.92.52-1.88.6-2.84.04-.24-.04-.48-.04-.76v-3.96c0-.32.04-.6.08-.88v-.28c-.12-.88-.04-1.76-.04-2.64.04-1.4 0-2.76 0-4.16 0-1.68-.04-3.4-.08-5.12 0-.64 0-1.28.04-1.92.04-.76-.2-1.36-.92-1.84-.68-.12-1.4-.28-2.2-.24-.12 0-.32 0-.44-.04-.52-.16-1.04-.08-1.56.08-.4.08-.76.08-1.16.08-.12-.2-.08-.4 0-.6.28-.68.4-1.44.52-2.16l.12-.36c.2-.12.4-.24.68-.44.48.04 1 .08 1.56.12.12 0 .24 0 .36.04.52.04 1.04.08 1.56.08.4.04.76-.04 1.16-.04.2 0 .44-.04.64-.04 2.04 0 4.08-.04 6.12-.04.28 0 .6.12.92.12.28.04.6 0 .92 0 .12-.04.28-.08.4-.08.36.52 1 2.48 1 3.04-.04.04-.16.12-.24.2h-.16c-.44-.08-.84-.12-1.28-.2-.44-.04-.84-.16-1.28-.04-.32.12-.72.04-1.08.04-.52 0-.8.12-1.32.48-.04.24-.08.52-.12.8-.16.88-.24 1.76-.24 2.68v2.52c0 .88-.08 1.76-.2 2.6-.04.36-.04.72 0 1.08.12.88.08 1.76.04 2.68-.04.24.04.52.04.8l-.12 4.2c0 .48-.04.92 0 1.36.04.6.12 1.2.2 1.8 0 .16.04.32.04.48-.16 1.04.08 2.08.24 3.12.08.36.32.72.48 1.16zm-1.64-.88-.04.04s.04 0 .04-.04c.04 0 .04-.04.04-.04zm-1.04-6.8c-.04-.04-.08-.04-.04-.04v.04c.04.04.08.04.04.04v-.04zM105.926 12l-.04.04s.04 0 .08-.04v-.04s0 .04-.04.04zm6.24 15.4c-.04.04-.08.08-.12.16h.08c0-.04 0-.12.04-.2 0 0 .04 0 0 0 .04-.04 0 0 0 .04zm.92-11.76c.04-.04.08-.08.16-.2-.2 0-.36 0-.52-.04v-.2c-.4-.04-.4-.04-.68.32.28-.12.48 0 .72-.12.12.08.2.16.32.24-.08 0-.16 0-.24.04-.04 0-.08.08-.08.12h.32v-.16zm-.08 12.48c.16 0 .32.04.48.04-.16-.04-.32-.36-.52-.08-.08 0-.12.04-.2.04.04.04.04.08.04.08.08-.04.12-.04.2-.08zm-6.84-15.64c.08-.12.12-.2.24-.36-.16 0-.24.04-.4.04.08.12.12.24.16.32-.04.04-.04.12-.08.2.24.04.4-.04.44-.28-.16.04-.24.04-.36.08zm7.04 13.76c-.04-.04-.12-.08-.2-.12v.44c.16-.04.24-.08.32-.16-.04-.08-.08-.12-.12-.2.04 0 .04-.04.04-.04s0 .04-.04.08zm-2.24-13.52c.04-.08.08-.2.12-.28-.08.08-.4.08-.08.28.04.08.04.2.08.36.08-.04.16-.04.24-.04 0-.12-.04-.2-.04-.32h-.32zm.16.6c-.08.04-.12.08-.16.12.16.16.32.28.44.44.08-.36-.24-.4-.32-.6.04 0 .04-.04.08-.08-.04.04-.04.08-.04.12zm1.8 23.76.04-.04c-.16-.12-.32-.2-.48-.28-.08.08-.12.16-.16.2l-.2-.2c0 .04-.04.04-.04.08.04.08.08.2.12.24h.72zm-.92-23.28c.08.04.16.08.2.08.08-.16.2-.32.28-.48.04-.04-.04-.16-.08-.28-.12.28-.24.44-.4.68zm.52 17.68h.56c-.08-.16.08-.36-.16-.44-.08.08-.12.12-.16.2-.04.04-.12.08-.24.24zm-.28-11.48c.04-.2.08-.32.16-.52-.32.16-.24.28-.16.52zm.08 7.96c-.12.24 0 .36.12.44 0 .04.08 0 .16 0-.08-.16-.16-.28-.28-.44zm.52-3.64c-.08-.08-.2-.12-.32-.2 0 .24.12.32.32.2zm.64-8.64c.12-.12.2-.2.32-.28-.16.04-.36-.08-.32.28zm-.92 4.84c.04 0 .04-.04.08-.08-.08-.04-.12-.12-.2-.24-.08.08-.08.16-.16.2.12.08.2.12.28.12zm1.56-7.24v.08l.12.12c.04 0 .12.04.2.04 0-.04 0-.04.04-.08-.12-.04-.24-.12-.36-.16zm-1.48 21.76c.04.04.08.08.12.08 0-.04.04-.12.08-.16-.04-.04-.08-.04-.08-.04zm.32-7.4c-.04-.04-.04-.08-.08-.12-.04.04-.08.04-.12.08l.04.08c.04 0 .12 0 .16-.04zm.24-14.12c-.04-.2-.04-.24-.04-.28-.04-.04-.12 0-.2 0 .04.08.12.12.24.28zm.16 21c0-.04.04-.04.08-.08-.04-.08-.12-.12-.16-.2-.04 0-.04.04-.08.04.04.08.08.16.16.24zm-1.12-2.68s-.04-.04-.04-.08c-.04.04-.08.08-.12.16 0 0 .04 0 .04.04zm.92-6.16.12.12.12-.12c-.04-.04-.08-.08-.12-.08-.04.04-.08.08-.12.08zm-.92-.04c0-.04-.04-.08-.04-.12-.04.04-.12.04-.16.08l.04.08c.04 0 .12-.04.16-.04zm.36 10.72-.04-.04-.16.16.08.08c.04-.08.08-.12.12-.2zm.92 2.6s0-.04.04-.04c-.04-.04-.12-.08-.16-.12 0 .04 0 .04-.04.04.08.04.12.08.16.12zm-.6-8.48c0 .04 0 .04.04.04.04-.04.08-.08.08-.12l-.04-.04c-.04.04-.08.08-.08.12zm-.12-10.72v-.12c-.08 0-.16 0-.24.04v.04c.08 0 .16 0 .24.04zm.8 17.08h.04c0-.08.04-.16.04-.24h-.08v.24zm-1.56-12.04-.08.08c.04.04.08.12.08.16.04-.04.08-.04.12-.08-.04-.04-.08-.12-.12-.16zm-1.44-12.4h-.04v.12h.04v-.12zm1 .28h.04v-.16h-.04v.16zm6.92 0h.08c-.04-.04-.04-.08-.04-.16 0 0 0 .04-.04.04v.12zm-8.88.08c.08 0 .04 0 0 0 .04.04.08.04 0 0zm2.08.48h.16-.16zm1.76.12h.04v-.12h-.04v.12zm-.8 22.56v-.04h-.12c0 .04 0 .04.04.04h.08zm-.24.2v.04h.16c-.04-.04-.04-.04-.04-.08-.04 0-.08.04-.12.04zm-5.36-23.96h-.04v.16h.04v-.16zm5.96 14.56v.04h.12v-.04h-.12zm-.16-8c.04.04.08.04.08.08l.08-.08h-.16zm-.36-.76h.08v-.16h-.08v.16zm-.52-1.2h-.04v.2c.04-.12.04-.16.04-.2zm1.36 11.6v.04h.16v-.04h-.16zm.24-13.28v.08c.04 0 .08-.04.12-.04v-.04h-.12zm-1.4 6.88h.04v-.2h-.04v.2zm-6-10.12h.04l-.04-.04v.04zm9.88.32v.04h.04zm0 .24v.04-.04zm2 .12v.04-.04zm-8.08.36s0-.04-.04-.04c0 0 0 .04-.04.04.04 0 .08 0 .08.04v-.04zm2.76.84h.04v-.04zm-.68.44v.04l.04-.04h-.04zm.72.4.04-.04s0-.04-.04-.04c0 0 0 .04-.04.04.04 0 .04.04.04.04zm-.92 11.92-.04.04h.04v-.04zm1.4 4.28s.04 0 .04-.04c0 0-.04 0-.04-.04l-.04.04c0 .04 0 .04.04.04zm-.6 2.2zm.6.2c-.04 0-.04.04-.04.04h.08c-.04 0-.04-.04-.04-.04zm-.12.64h.04l-.04-.04h-.04c0 .04 0 .04.04.04zm-.16 1.52h.04v-.04zm-.28-10.12h-.04v.04zm.12 11.52s-.04 0-.04-.04l-.04.04.04.04s0-.04.04-.04zm.8.72-.04-.04v.04h.04zm-1.4 1.04-.04-.04v.04c-.04 0 0 .04 0 .04.04 0 .04-.04.04-.04zm.12-15.96c0-.04 0-.04-.04-.04l-.04.04h.08zm.2 4.68v.04l.04-.04h-.04zm.6-9v-.04.04zm.24-.72v-.04l-.04.04h.04zm-.56 0c0-.04-.04-.04-.04-.04v.08c0-.04.04-.04.04-.04zm-.84-.96h-.04.04zm.08-1.64h.04v.04zm11.301-3.72c.2-.32.48-.28.76-.28H132.587c.28 0 .52-.04.76-.08.28-.04.56-.08.8.2.44.92.88 1.92 1.12 3-.16 0-.28.04-.36.04-.64.04-1.28.12-1.92.12-1.16-.04-2.28-.12-3.4-.2-.28-.04-1.12.12-1.52.32-.16.24-.2.52-.2.8 0 .72.04 1.44-.04 2.12-.16.96-.12 1.92-.08 2.84 0 .72.12 1.44.4 2.12.2.2.48.24.76.24.64 0 1.24.04 1.88 0 .32 0 .64-.08.96-.16.08 0 .12-.04.16-.04.72.08 1.4-.04 2.16-.04-.12.28-.16.52-.28.76-.2.52-.36 1.04-.44 1.64-.08.4-.2.84-.72 1.12-.56-.04-1.2-.08-1.88-.08-.32-.04-.6 0-.92.04-.24 0-.48.04-.68.08-.52.04-1.24.56-1.2 1.28.04 1.04 0 2.08-.12 3.12-.08.72-.12 1.48-.12 2.24.04.72.08 1.4.16 2.12.04.44.24.84.36 1.28.4.36.88.52 1.44.48.72 0 1.44-.08 2.16-.2h.16c1.04.04 2.04-.16 3.08-.36.04.08.12.12.2.24-.4 1.32-.8 2.64-1.32 3.84-.36.24-.64.24-.92.24h-6.16c-1 0-1.96.08-3.04.2l-.4-.2c.04-.32.08-.6.12-.96.4-.48.28-1.16.44-1.8.08-.48-.04-.96 0-1.44 0-.68.08-1.4.08-2.08 0-.96-.04-1.92-.08-2.88 0-1.32-.04-2.64-.04-3.92.04-1.8.04-3.6.04-5.4v-1.6c.04-.64.12-1.28.2-1.96 0-.28.04-.56 0-.8-.08-.44 0-.84 0-1.24 0-.52-.04-1.04-.12-1.56-.04-.44-.16-.88-.2-1.32-.04-.68-.24-1.28-.48-1.88zm1.76 8.16.12.12c0 .08.04.12.04.2.04 0 .04-.04.08-.04l-.12-.12-.12-.12s-.04-.08-.08-.12c0 .04 0 .08-.04.12h-.04l.04-.04h.12zm.24-1.04c-.04 0-.04.04-.04.04l.04-.04c0-.04.04-.04 0-.04.04 0 0 0 0 .04zm1.16-.48.08-.08c-.04.04-.04.08-.08.08h-.12l-.12-.12s-.04-.04 0 0c-.04-.04 0 0 0 0v.12c-.04.04-.12.04-.2.04.04.12.08.16.16.24l.16-.16zm-.44-2.68c-.04-.04-.08-.04-.08-.04s.04 0 .04.04c.04 0 .08.04.04 0zm7.4-2.24c-.04-.04-.08-.04-.08-.04l.04.04c.04.04.08.04.08.04zm-3.92 24.64v.08c-.04 0-.08-.04-.08-.08-.04 0-.08-.04-.04 0v.04h.16c0-.04 0-.08.04-.12-.04.04-.04.08-.08.08zm-4.2-.72s.04 0 .04-.04c0 .04 0 .04-.04.08-.04 0-.04.04-.08.04l.08.08c.04 0 .08.04.04 0h-.04v-.16zm.72-15c.04.08.08.12.16.2 0-.04.04-.08.04-.08l-.24-.12c0-.12.04-.28-.24-.16.12.08.2.12.28.16zm-.24-2.36c.04 0 .12 0 .24-.04-.08-.12-.12-.16-.24-.32v.36c-.04.04-.08.04 0 0-.04.08-.04.04 0 0zm.24 9.28v.04c.04 0 0 0-.04-.04 0-.04 0-.12-.04-.24l-.2.2c.12.04.2.04.28.04zm7.12-16.08c.08 0 .16 0 .28-.04-.12-.08-.16-.12-.24-.16v.2l-.08.08c.04-.04.04-.04.04-.08zm-7.84 1.16c.04.08.12.16.2.28.04-.28-.08-.24-.2-.24-.04-.08-.08-.16-.12-.32-.04.12-.08.16-.12.24.12.04.16.04.24.04zm.12 3.56c-.04-.04-.04-.08-.04-.04h.04c.08.08.12.2.24.28.08-.08.16-.12.24-.2-.2-.24-.36-.04-.48-.04zm.72-3.56c.04.12.08.24.2.4.04-.12.08-.24.16-.36h-.4c0-.12 0-.24.04-.32-.12-.08-.2-.12-.28-.16.2-.04.36-.04.56-.04.04-.16.08-.28.16-.48l-.56.28c-.08.04-.08.16-.12.24-.16.04-.16.16-.08.24s.2.16.32.2zm1.88 24.2c.04.08.08.2.2 0h-.24c.04-.12-.04-.24-.12-.36h.28c-.04-.12-.08-.24-.08-.36-.12.08-.16.12-.16.16-.04.08 0 .16 0 .2-.2.04-.4.08-.48.36h.6zm-1.68-12.32c-.08 0-.2-.04-.32-.08-.04.16-.04.28-.08.4.2.04.4.08.64.16-.12-.2-.16-.36-.24-.48l.04-.04s0 .04-.04.04zm5.88 12.4c.32.04.6-.04.88-.24-.08-.12-.16-.2-.28-.36-.08.36-.6.16-.6.6zm-5.36-1.72c-.16-.08-.2-.12-.24-.16.04-.08.04-.16.08-.28-.2.04-.4.08-.56.16 0 .08 0 .16.04.24.2.04.36.04.68.04zm.76-12.52c.56.2.56.2.84-.04-.28-.16-.52-.16-.84.04zm2.52 14.64c0 .32.28.24.44.44 0-.2 0-.36-.04-.6-.16.08-.28.12-.4.16zm-1.04-25.84.36.12c.04-.24.16-.44-.12-.56-.08.16-.16.28-.24.44zm2.64 11c-.4.28-.4.28-.16.48.2-.08.08-.28.16-.48zm-6.16 10.28c-.08.12-.12.2-.12.32-.04.04.04.08.12.08.04-.12.24-.24 0-.4zm.24-1.44c.04-.16.08-.32.12-.44-.04 0-.04-.04-.08-.04-.08.16-.2.28-.32.48h.28zm-.16-6.4c0 .2 0 .28.04.44.12-.04.2-.04.4-.08-.16-.16-.28-.24-.44-.36zm0-7.04c-.08-.24-.16-.4-.36-.52 0 .24.08.36.36.52zm-.04 10.64c.04.12.04.16.08.24.12-.04.2-.04.28-.08v-.12c-.12 0-.2 0-.36-.04zm2.4 9.04c.36-.12.36-.12.2-.4-.04.12-.08.2-.2.4zm-2.48-25.4.12-.36c-.04 0-.04 0-.08-.04-.08.12-.16.2-.24.28.04.04.08.08.2.12zm-.36 22.8c-.08.24 0 .36.24.36-.12-.16-.2-.28-.24-.36zm1.32 2.24c0 .12-.04.16-.04.24.04.04.04.08.08.2.04-.16.08-.24.12-.32-.04-.04-.08-.04-.16-.12zm3.16.12c0-.04.04-.08.04-.08h-.48v.08h.44zm-1.68-26.04h-.08c0 .12.04.2.08.28h.08c0-.12-.04-.2-.08-.28zm3.64.12c-.04 0-.04.04-.04.04h.48v-.04h-.44zm-5.04 25.64c-.2-.2-.2-.2-.36 0h.36zm6 .08v.08c.04.04.08.04.16.08 0-.04 0-.08.04-.12-.08-.04-.12-.04-.2-.04zm-5.76-.68c-.08 0-.16-.04-.16 0-.04.04-.04.08-.04.28.12-.16.16-.2.2-.28zm1.84.48s.04-.04.04-.08c-.08-.04-.12-.08-.2-.12 0 .04-.04.08-.04.12.04.04.12.04.2.08zm.48-13.88v-.12h-.16v.16c.08-.04.12-.04.16-.04zm1.88-.68h-.08c.04.08.04.12.04.2h.04v-.2zm1.12-11.24c0-.04.04-.08.04-.08h-.28v.08h.24zm-5.84 22c0 .04.04.04.04.08.04-.04.08-.12.12-.16-.04 0-.04-.04-.08-.04-.04.04-.08.08-.08.12zm-1 .32.08-.08c-.04-.04-.08-.08-.16-.12 0 .04-.04.04-.04.08zm.68-21.68c0-.2 0-.32-.2-.2zm-.28 12.32v.04h.24v-.04h-.24zm.08-10.52c-.04 0-.08-.04-.12-.04 0 .04-.04.08-.08.16.04 0 .04 0 .08.04.04-.04.08-.12.12-.16zm6.6 22.88h.08c0-.08-.04-.16-.04-.24h-.04v.24zm-6.12-18.24c0 .04 0 .04.04.08.04-.08.08-.12.12-.16l-.04-.04zm6.84-7.12v-.04c-.04 0-.08 0-.12.04v.04c.04 0 .08 0 .12-.04zm-8 23.56v.04h.16v-.04h-.16zm1.32-23.32h-.04v.12h.04v-.12zm3.88.08c-.04 0-.08 0-.08-.04-.04 0-.04.04-.04.04 0 .04.04.04.08.08 0 0 .04-.04.04-.08zm-4.32 1.4h-.04v.16h.04v-.16zm.8 22.56v.04h.12v-.04h-.12zm-.6-21.8v-.04h-.12v.04h.12zm-.6 3.52h.04v-.16h-.04v.16zm.52 11.8c-.04.04-.08.04-.08.08s0 .04.04.08c0-.04 0-.08.04-.16zm.8-6.08s-.04 0-.04.04v.12h.04v-.16zm-.16-.32h.08c0-.08-.04-.12-.04-.16h-.04v.16zm-.64 12.2c0-.04-.04-.04-.04-.04s-.04 0-.04.04c0 0 .04 0 .04.04zm3.48 1.96v.04-.04zm3.64 0s-.04 0-.04.04h.08zm-3.6.24c-.04 0-.04 0-.04-.04 0 .04-.04.04-.04.04 0 .04.04.04.04.04s.04 0 .04-.04zm-3.88.28c0-.04 0-.04-.04-.04v.04h.04zm1.52-26.24c-.04 0-.04.04-.04.04h.04v-.04zm2.48.28c0-.04-.04-.04-.04-.04s-.04 0-.04.04c0 0 .04 0 .04.04zm-2.76.12h.04v-.04zm5.76 0h.04-.04zm-3.04.08v.04-.04zm-4.32.36-.04.04h.04v-.04zm-.12 2.84s0-.04-.04-.04c0 0 0 .04-.04.04.04 0 .04.04.04.04.04 0 .04-.04.04-.04zm.32 1.04v.04-.04zm-.24.24.04.04zm6.48 6.32-.04.04h.04v-.04zm-3.96.84h-.04v.04zm-2.48 2.48-.04-.04v.04h.04zm.48.6-.04-.04v.04h.04zm-.24 1.16h-.08c.04 0 .04.04.04.04.04 0 .04-.04.04-.04zm.2 3.16h.04-.04zm.4-10.08c0-.04-.04-.04-.04-.04s-.04 0-.04.04h.08zm-.76 11.48.04.04zm.96.32-.04.04h.04v-.04zm-.6.44.04-.04-.04-.04-.04.04zm.52-15.96h-.12c.04.04.08.08.16.12 0-.04-.04-.08-.04-.12zm22.101 11.96c.4 1.44.84 2.96 1.28 4.48.28.96.64 1.92.92 2.92.2.68.44 1.36.84 2 .12.2.2.4.32.68-.36.08-.68.2-1.04.2-1.08.04-2.16 0-3.28 0-.08 0-.16 0-.24-.04-.12-.48-.12-.48.12-1.48-.68-2.68-1.52-5.36-2.48-8.04-.36-.24-.68-.2-1.08-.08-.32.16-.68.28-1.08.44-.08.08-.16.24-.24.32-.24.96-.16 1.88-.16 2.8v3.16c0 .8.08 1.56.44 2.28.08.08.08.16.12.32-.48.2-1.04.08-1.56.12s-1.08.08-1.6.08c-.52.04-1.04.08-1.6-.04v-.52c.16-.92.28-1.84.44-2.76v-.52c0-1.08-.04-2.12.04-3.16.12-1.48.08-2.96.12-4.4 0-.92.08-1.8.08-2.68 0-.8-.08-1.6-.12-2.4 0-2.56.04-5.12 0-7.64 0-1.12-.04-2.28-.12-3.4 0-.28-.12-.52-.24-.76-.04-.16-.08-.28-.16-.48.44-.24.92-.28 1.36-.36.48-.12.92.04 1.36.08.32.04.6.08.88.08.4-.04.84-.04 1.24-.12.72-.12 1.44 0 2.2.04.64 0 1.32.12 1.96.24.32.04.6.24.92.36 1.2.64 1.96 1.6 2.36 2.92.28.76.44 1.52.44 2.32 0 .96.08 1.92.12 2.88 0 .32-.04.6 0 .92.08.76-.16 1.52-.24 2.28-.24 1.36-.56 2.72-1.04 4.04-.16.48-.4.92-.8 1.28-.28.24-.4.56-.4.92 0 .24-.04.44-.08.72zm1.28-13.52c.04-.04.04-.04.04-.08 0 .04-.04.04-.04.08-.04 0-.04.04-.04.08 0-.04.04-.04.04-.08zm-.84 2.24c.04 0 .08 0 .08.04 0-.04-.04-.04-.04-.08h-.08s.04 0 .04.04zm-.2 3.52c0-.04.04-.04.04-.08-.04.04-.04.04-.08.04 0 .04-.04.08-.04.08.04 0 .04-.04.08-.04zm-2.36 5.16.04.04-.04-.04c-.04-.04-.04-.04-.04-.08 0 .04 0 .04.04.08zm1.04 1.84c.04 0 .08 0 .08-.04 0 0-.04-.04-.08-.04v-.12c.12-.08.16-.16 0-.24l-.12-.12c-.04.04-.04.08-.04.08.04.04.12.04.16.04v.24h-.16v.08c.04 0 .12 0 .2.04v.12l-.08.08c0-.04.04-.08.04-.12zm-.44-15.12c-.04 0-.08-.04-.08-.04l.04.04c.04.04.04.04.08.04zm-2.72-.6c-.04.04-.04.04-.04.08 0-.04.04-.04.04-.04.04-.04.04-.08.04-.04h-.04zm-4.36 19.28c0-.04-.04-.04-.04-.04s.04 0 .08.04c.04 0 .08.04.16.08v-.04c-.04-.04-.12-.04-.2-.04zm8.68-9.52c0-.04 0-.08.04-.12.08-.08.16-.2.24-.28-.08-.08-.16-.12-.24-.2v.48c-.04 0-.08.04-.08.04 0 .04.04.04.08.08 0 .08 0 .12.04.2 0 0 .04-.04.08-.04zm-.44 10.2c-.04.08-.08.12-.12.16.04 0 .04.04.08.04 0-.08.04-.12.04-.2 0 0 .04-.04.04-.08 0 .04-.04.08-.04.08zm1.28-16.4c0-.08 0-.12-.04-.2l-.04.04c.04.04.04.08.08.12.08.08.12.16.2.2 0 0 .04-.04.04-.08-.08-.04-.16-.04-.24-.08zm-8.2-3.44c.04-.04.24.04.16-.2-.08.08-.12.16-.16.24h-.04c0 .04 0 0 .04-.04zm4.32-.68c-.04 0-.04-.04-.08-.04.04 0 .08 0 .12.04 0 .16-.12.4.2.32 0 .16 0 .28.24.2-.08-.08-.16-.12-.24-.16.04-.2-.04-.32-.24-.36zm1.88 17.48c-.24-.12-.4-.04-.6.24.28-.04.48-.04.6-.24l.08-.08zm-6.8-10c.16-.04.36-.08.56-.16-.24-.12-.44-.28-.64 0 .04.08.08.12.08.2-.04 0-.12 0-.24.04.04.12.08.2.12.28 0 0 .04 0 .08-.04 0-.08.04-.2.04-.32zm8.8-.92c0-.04 0-.12-.04-.2-.04-.04-.08-.04-.12-.08-.04.04-.08.08-.2.24.24 0 .32.04.36.04-.04.16 0 .32.16.44.04.04.12 0 .2 0-.04-.16-.08-.28-.12-.44h-.24zm-9.16 7.64c.08.04.12.08.2.08.04 0 .12-.04.16-.08.04 0 .04.04.04 0 0 .04 0 0-.04 0-.04-.08-.08-.16-.12-.28.2-.04.4-.08.68-.12-.28-.12-.48-.2-.68-.28-.16.2-.24.4-.24.68 0 .04-.04.12-.08.16.04 0 .04.04.08.04v-.2zm2.44-.44c.4.32.92.24 1.4.2.64-.04 1.28-.2 1.76-.64.72-.72 1.2-1.6 1.32-2.64.12-.88.16-1.8.24-2.72.08-1.4.04-2.84-.24-4.24 0-.16-.04-.32-.12-.44-.24-.36-.48-.72-.76-1.04-.08-.12-.24-.24-.4-.32-.52-.2-1.04-.44-1.64-.2-.12.04-.28.04-.4.04-.64.04-1.04.36-1.12 1-.08.68-.16 1.4-.24 2.12-.04.36-.12.72-.12 1.12v2.56c.04 1.72-.12 3.44.32 5.2zm5.12-13.16c-.04.24-.04.44-.08.68.24-.08.48-.12.68-.16-.12-.16-.24-.36-.36-.52h-.24zm.52 20.72c-.28-.28-.52-.36-.84-.44.12.2.16.36.24.48.2 0 .36-.04.6-.04zm.84-12.92c.04.08.04.16.04.24.24.04.36 0 .44-.2-.16-.16-.28-.16-.48-.04zm-1.76-7.52c.04-.12.08-.2.08-.28h-.44c-.04 0-.04.08-.12.16zm1.64 9.24c-.04 0-.08.04-.12.04.08.16.12.32.2.56.04-.24.08-.36.12-.52-.08-.04-.16-.08-.2-.08zm-7.52 4.68v-.12c-.12-.04-.24-.08-.4-.12 0 .12-.04.2-.04.36.2-.04.32-.08.44-.12zm-1.28 11.04.36-.24c-.24 0-.4-.04-.68-.08zm-.12-1.8h.56c-.24-.16-.36-.24-.52-.32 0 .12-.04.2-.04.32zm.52-21.12v.6c.24-.2.24-.2 0-.6zm7.72-2.84c-.08.12-.16.2-.28.28l.08.08c.12-.04.24-.12.4-.16zm-7.96 1.64c.32-.04.32-.04.48-.36zm-.08 13.08s-.04.04-.04.08l.28.28c.08-.12.08-.16.16-.28-.16-.04-.28-.08-.4-.08zm.52-10.36c.12-.28.16-.4-.08-.44 0 .04-.04.12-.04.16s.04.12.12.28zm7.92-1.36c0 .2.04.36.32.28-.12-.12-.2-.2-.32-.28zm-.28 9.6h-.52c.16.12.24.16.32.2.08-.04.12-.12.2-.2zm-8.36-12.92c0-.04-.04-.08-.04-.08l-.24.12c.04.04.04.08.04.08zm2.92 16.8h-.08c.04.08.04.12.04.16.08 0 .12 0 .16-.04zm4.4 4.12.08.08c.08-.04.12-.12.2-.16 0-.04-.04-.04-.04-.08-.08.04-.16.12-.24.16zm-1.64-20.88c0 .04 0 .08-.04.2.12-.04.2-.04.32-.04v-.08c-.08-.04-.16-.04-.28-.08zm-4.48 3.84c-.12 0-.24.04-.4.04.12.08.16.12.24.2.04-.08.08-.12.16-.24zm4.48 12.96c.08-.16.16-.2.16-.24l-.16-.16v.4zm-4.56 1.24c.04-.2.04-.2-.2-.32.08.12.12.24.2.32zm-1.04 5.28s-.04.04-.04.08c.08.04.16.08.28.12 0-.04 0-.04.04-.08-.12-.04-.2-.08-.28-.12zm1-6.76c-.04-.04-.08-.04-.08-.04-.08.04-.12.08-.16.16.04 0 .08.04.12.04.04-.04.08-.12.12-.16zm7.8 9c0 .04-.04.08-.04.12s.08.08.12.04c0 0 .04-.08.04-.12 0 0-.04 0-.12-.04zm-8.84-16.76c.04.08.08.12.16.2.04-.08.08-.12.16-.2h-.32zm3.52-8.44c.04 0 .04-.04.08-.04-.04-.04-.12-.08-.16-.12 0 .04 0 .04-.04.08.04.04.08.08.12.08zm5.2 10.8v.04h.24v-.04h-.24zm-8.12-10.04h.04v-.28s-.04 0-.04-.04v.32zm-.2 5.72v-.04h-.24v.08c.08 0 .16 0 .24-.04zm9.04-3.28c0-.04-.04-.04-.04-.08l-.12.12c0 .04 0 .04.04.08zm-9.8 19c0 .08-.04.12-.08.16.04.04.08.04.12.08l.12-.12c-.04-.04-.08-.08-.16-.12zm1.2-2.4v.08h.28c-.2-.04-.24-.08-.28-.08zm-.48 1.92h.16v-.04c-.04 0-.08.04-.16.04zm.04.48h-.04v.16c.04 0 .04 0 .08-.04 0-.04-.04-.08-.04-.12zm1.32-23.28c-.04.04-.08.04-.08.04 0 .04.04.08.04.12 0-.04 0-.08.04-.16zm-2.28-.12c.16.04.16.04.2.04 0 .04.04 0 .04 0-.04 0-.08-.04-.24-.04zm7.28 16v.04h.12v-.08c-.04 0-.08.04-.12.04zm2.68-8.68h.04v-.16l-.04.04V19zm-8.48-.32c-.08-.04-.08-.08-.08-.08-.04 0-.08.04-.12.04.04 0 .12 0 .2.04zm-.64-.04-.04-.04c-.04 0-.08.04-.12.04 0 0 0 .04.04.04s.08 0 .12-.04zm8.92-.84h-.04v.12h.08c-.04-.04-.04-.08-.04-.12zm.48-.92h-.04V17h.04v-.12zm-8.44 15.72h-.04v.12h.04v-.12zm3-4.12v.04h.12v-.04h-.12zm-3.4 10.24h.04v-.12h-.04v.12zm.4-26.08h-.04v.04zm1.72.04.04-.04h-.04v.04zm-2 .4-.04.04.04.04c0-.04 0-.04.04-.08h-.04zm6.24.8v.08l.04-.04s-.04 0-.04-.04zm-6.2.28h-.08l.04.04c.04 0 .04 0 .04-.04zm-1.2.4v-.04.04zm7.48 13.72h.04v-.04zm-5.12.12v-.04h-.04zm6.12-2.36h-.08l.04.04zm-8.28 3.4.04.04v-.04h-.04zm-.28.36-.04-.04v.04h.04zm.32.12h-.04.04zm.24-.04-.04.04h.04v-.04zm6.92.76.04-.04s-.04 0-.04-.04c0 .04-.04.04-.04.04 0 .04 0 .04.04.04zm1.32-4.84-.04-.04v.08c0-.04.04-.04.04-.04zm-2.28 4.92v.04h.04zm-5.28 1.2.04-.04zm6.32-5.28.04-.04h-.04v.04zm-.32 5.96.04.04zm-6.32.12s0-.04-.04-.04c0 0 0 .04-.04.04.04 0 .04.04.08.04v-.04zm6.32.12zm1.52-7.28v.04-.04zm-7.48 8.12c0-.04 0-.04-.04-.04v.04h.04zm7.96-8.36h-.04l.04.04v-.04zm-7.64 8.96v-.04.04zm-.92 1.12-.04.04h.04v-.04zm7.84.6v.04V36zm-7.28-9.24.04-.04h-.04v.04zm8.4 11c-.04 0-.04 0-.04-.04v.08zm-.6-13.72-.04-.04s-.04 0-.04.04l.04.04zm-8.84-1.76zm6.2 5.2.04-.04h-.04v.04zm2.36-6.8.04-.04h-.04v.04zm-7.44-.88.04.04v-.04h-.04zm-.2-.12v.04h.04zm-.68 8.2v.08l.04-.04zm.12-9.92v-.04h-.04zm9.4-2.4v.04h-.04zm-3.52 12.48s0 .04-.04.04v-.04h.04z" transform="matrix(1.31676 0 0 1.31676 56 170.1168)"/>
</svg>